<svg width="20" height="20" viewBox="0 0 20 20" fill="none" xmlns="http://www.w3.org/2000/svg">
<path d="M5.23329 5.83333C5.23329 6.1647 5.50192 6.43333 5.83329 6.43333C6.16467 6.43333 6.43329 6.1647 6.43329 5.83333H5.23329ZM6.43329 14.1667C6.43329 13.8353 6.16467 13.5667 5.83329 13.5667C5.50192 13.5667 5.23329 13.8353 5.23329 14.1667H6.43329ZM6.74331 17.3183L7.01571 16.7837L7.0157 16.7837L6.74331 17.3183ZM6.01495 16.59L5.48035 16.8624H5.48035L6.01495 16.59ZM17.3183 16.59L17.8529 16.8624L17.3183 16.59ZM16.5899 17.3183L16.3176 16.7837L16.3176 16.7837L16.5899 17.3183ZM16.5899 2.68166L16.3176 3.21626V3.21626L16.5899 2.68166ZM17.3183 3.41002L16.7837 3.68241L17.3183 3.41002ZM6.01495 3.41002L6.54955 3.68241L6.01495 3.41002ZM6.74331 2.68166L6.47092 2.14705V2.14705L6.74331 2.68166ZM11.6666 10.6C11.998 10.6 12.2666 10.3314 12.2666 10C12.2666 9.66863 11.998 9.4 11.6666 9.4V10.6ZM2.49996 9.4C2.16859 9.4 1.89996 9.66863 1.89996 10C1.89996 10.3314 2.16859 10.6 2.49996 10.6V9.4ZM3.83253 7.83282C4.01634 7.5571 3.94183 7.18458 3.66611 7.00077C3.3904 6.81696 3.01788 6.89146 2.83406 7.16718L3.83253 7.83282ZM1.82071 9.76888L2.31994 10.1017H2.31994L1.82071 9.76888ZM1.82071 10.2311L2.31994 9.8983L1.82071 10.2311ZM2.83406 12.8328C3.01788 13.1085 3.3904 13.183 3.66611 12.9992C3.94183 12.8154 4.01634 12.4429 3.83253 12.1672L2.83406 12.8328ZM6.43329 5.83333V5.16667H5.23329V5.83333H6.43329ZM8.49996 3.1H14.8333V1.9H8.49996V3.1ZM16.9 5.16667V14.8333H18.1V5.16667H16.9ZM14.8333 16.9H8.49996V18.1H14.8333V16.9ZM6.43329 14.8333V14.1667H5.23329V14.8333H6.43329ZM8.49996 16.9C8.02335 16.9 7.70198 16.8995 7.45416 16.8793C7.21334 16.8596 7.09528 16.8243 7.01571 16.7837L6.47092 17.8529C6.74786 17.9941 7.04141 18.0496 7.35644 18.0753C7.66446 18.1005 8.04315 18.1 8.49996 18.1V16.9ZM5.23329 14.8333C5.23329 15.2901 5.23283 15.6688 5.25799 15.9769C5.28373 16.2919 5.33924 16.5854 5.48035 16.8624L6.54955 16.3176C6.50901 16.238 6.47368 16.12 6.45401 15.8791C6.43376 15.6313 6.43329 15.3099 6.43329 14.8333H5.23329ZM7.0157 16.7837C6.815 16.6815 6.65182 16.5183 6.54955 16.3176L5.48035 16.8624C5.69766 17.2889 6.04442 17.6356 6.47092 17.8529L7.0157 16.7837ZM16.9 14.8333C16.9 15.3099 16.8995 15.6313 16.8792 15.8791C16.8596 16.12 16.8242 16.238 16.7837 16.3176L17.8529 16.8624C17.994 16.5854 18.0495 16.2919 18.0753 15.9769C18.1004 15.6688 18.1 15.2901 18.1 14.8333H16.9ZM14.8333 18.1C15.2901 18.1 15.6688 18.1005 15.9768 18.0753C16.2918 18.0496 16.5854 17.9941 16.8623 17.8529L16.3176 16.7837C16.238 16.8243 16.1199 16.8596 15.8791 16.8793C15.6313 16.8995 15.3099 16.9 14.8333 16.9V18.1ZM16.7837 16.3176C16.6814 16.5183 16.5183 16.6815 16.3176 16.7837L16.8623 17.8529C17.2888 17.6356 17.6356 17.2889 17.8529 16.8624L16.7837 16.3176ZM14.8333 3.1C15.3099 3.1 15.6313 3.10047 15.8791 3.12071C16.1199 3.14039 16.238 3.17571 16.3176 3.21626L16.8623 2.14705C16.5854 2.00594 16.2918 1.95044 15.9768 1.9247C15.6688 1.89953 15.2901 1.9 14.8333 1.9V3.1ZM18.1 5.16667C18.1 4.70986 18.1004 4.33116 18.0753 4.02314C18.0495 3.70812 17.994 3.41456 17.8529 3.13762L16.7837 3.68241C16.8242 3.76199 16.8596 3.88005 16.8792 4.12086C16.8995 4.36868 16.9 4.69006 16.9 5.16667H18.1ZM16.3176 3.21626C16.5183 3.31852 16.6814 3.4817 16.7837 3.68241L17.8529 3.13762C17.6356 2.71112 17.2888 2.36437 16.8623 2.14705L16.3176 3.21626ZM6.43329 5.16667C6.43329 4.69006 6.43376 4.36868 6.45401 4.12086C6.47368 3.88005 6.50901 3.76199 6.54955 3.68241L5.48035 3.13762C5.33924 3.41456 5.28373 3.70812 5.25799 4.02314C5.23283 4.33116 5.23329 4.70986 5.23329 5.16667H6.43329ZM8.49996 1.9C8.04315 1.9 7.66446 1.89953 7.35644 1.9247C7.04141 1.95044 6.74786 2.00594 6.47092 2.14705L7.01571 3.21626C7.09528 3.17571 7.21334 3.14039 7.45416 3.12071C7.70198 3.10047 8.02335 3.1 8.49996 3.1V1.9ZM6.54955 3.68241C6.65182 3.4817 6.815 3.31852 7.01571 3.21626L6.47092 2.14705C6.04442 2.36436 5.69766 2.71112 5.48035 3.13762L6.54955 3.68241ZM11.6666 9.4H2.49996V10.6H11.6666V9.4ZM2.83406 7.16718L1.32148 9.43606L2.31994 10.1017L3.83253 7.83282L2.83406 7.16718ZM1.32148 10.5639L2.83406 12.8328L3.83253 12.1672L2.31994 9.8983L1.32148 10.5639ZM1.32148 9.43606C1.09382 9.77755 1.09382 10.2224 1.32148 10.5639L2.31994 9.8983C2.361 9.95989 2.361 10.0401 2.31994 10.1017L1.32148 9.43606Z" fill="currentColor"/>
</svg>
