<svg width="20" height="20" viewBox="0 0 20 20" fill="none" xmlns="http://www.w3.org/2000/svg">
<g clip-path="url(#clip0_6471_24903)">
<path d="M0.833252 7.49967C0.833252 5.16612 0.833252 3.99935 1.28739 3.10805C1.68686 2.32404 2.32428 1.68662 3.10829 1.28715C3.99959 0.833008 5.16637 0.833008 7.49992 0.833008H12.4999C14.8335 0.833008 16.0002 0.833008 16.8915 1.28715C17.6756 1.68662 18.313 2.32404 18.7124 3.10805C19.1666 3.99935 19.1666 5.16612 19.1666 7.49967V12.4997C19.1666 14.8332 19.1666 16 18.7124 16.8913C18.313 17.6753 17.6756 18.3127 16.8915 18.7122C16.0002 19.1663 14.8335 19.1663 12.4999 19.1663H7.49992C5.16637 19.1663 3.99959 19.1663 3.10829 18.7122C2.32428 18.3127 1.68686 17.6753 1.28739 16.8913C0.833252 16 0.833252 14.8332 0.833252 12.4997V7.49967Z" fill="white" fill-opacity="0.2"/>
<path d="M6.66658 6.06634C6.33521 6.06634 6.06658 6.33497 6.06658 6.66634C6.06658 6.99771 6.33521 7.26634 6.66658 7.26634V6.06634ZM13.3333 7.26634C13.6646 7.26634 13.9333 6.99771 13.9333 6.66634C13.9333 6.33497 13.6646 6.06634 13.3333 6.06634V7.26634ZM6.66658 9.39967C6.33521 9.39967 6.06658 9.6683 6.06658 9.99967C6.06658 10.331 6.33521 10.5997 6.66658 10.5997V9.39967ZM13.3333 10.5997C13.6646 10.5997 13.9333 10.331 13.9333 9.99967C13.9333 9.6683 13.6646 9.39967 13.3333 9.39967V10.5997ZM6.66658 12.733C6.33521 12.733 6.06658 13.0016 6.06658 13.333C6.06658 13.6644 6.33521 13.933 6.66658 13.933V12.733ZM13.3333 13.933C13.6646 13.933 13.9333 13.6644 13.9333 13.333C13.9333 13.0016 13.6646 12.733 13.3333 12.733V13.933ZM3.10829 18.7122L3.38069 18.1776L3.10829 18.7122ZM1.28739 16.8913L1.822 16.6189L1.28739 16.8913ZM18.7124 16.8913L18.1778 16.6189L18.7124 16.8913ZM16.8915 18.7122L16.6192 18.1776L16.8915 18.7122ZM16.8915 1.28715L16.6192 1.82175L16.8915 1.28715ZM18.7124 3.10805L18.1778 3.38044L18.7124 3.10805ZM3.10829 1.28715L3.38069 1.82175L3.10829 1.28715ZM1.28739 3.10805L1.822 3.38044L1.28739 3.10805ZM6.66658 7.26634H13.3333V6.06634H6.66658V7.26634ZM6.66658 10.5997H13.3333V9.39967H6.66658V10.5997ZM6.66658 13.933H13.3333V12.733H6.66658V13.933ZM7.49992 1.43301H12.4999V0.233008H7.49992V1.43301ZM18.5666 7.49967V12.4997H19.7666V7.49967H18.5666ZM12.4999 18.5663H7.49992V19.7663H12.4999V18.5663ZM1.43325 12.4997V7.49967H0.233252V12.4997H1.43325ZM7.49992 18.5663C6.32324 18.5663 5.47682 18.5659 4.81212 18.5116C4.15442 18.4578 3.72765 18.3544 3.38069 18.1776L2.8359 19.2468C3.38023 19.5242 3.9825 19.6478 4.7144 19.7076C5.4393 19.7668 6.34304 19.7663 7.49992 19.7663V18.5663ZM0.233252 12.4997C0.233252 13.6565 0.232785 14.5603 0.292012 15.2852C0.351811 16.0171 0.475437 16.6194 0.752787 17.1637L1.822 16.6189C1.64521 16.2719 1.54176 15.8452 1.48803 15.1875C1.43372 14.5228 1.43325 13.6763 1.43325 12.4997H0.233252ZM3.38069 18.1776C2.70957 17.8356 2.16394 17.29 1.822 16.6189L0.752787 17.1637C1.20978 18.0606 1.93899 18.7898 2.8359 19.2468L3.38069 18.1776ZM18.5666 12.4997C18.5666 13.6763 18.5661 14.5228 18.5118 15.1875C18.4581 15.8452 18.3546 16.2719 18.1778 16.6189L19.247 17.1637C19.5244 16.6194 19.648 16.0171 19.7078 15.2852C19.767 14.5603 19.7666 13.6565 19.7666 12.4997H18.5666ZM12.4999 19.7663C13.6568 19.7663 14.5605 19.7668 15.2854 19.7076C16.0173 19.6478 16.6196 19.5242 17.1639 19.2468L16.6192 18.1776C16.2722 18.3544 15.8454 18.4578 15.1877 18.5116C14.523 18.5659 13.6766 18.5663 12.4999 18.5663V19.7663ZM18.1778 16.6189C17.8359 17.29 17.2903 17.8356 16.6192 18.1776L17.1639 19.2468C18.0608 18.7898 18.7901 18.0606 19.247 17.1637L18.1778 16.6189ZM12.4999 1.43301C13.6766 1.43301 14.523 1.43347 15.1877 1.48778C15.8454 1.54152 16.2722 1.64496 16.6192 1.82175L17.1639 0.752543C16.6196 0.475193 16.0173 0.351567 15.2854 0.291768C14.5605 0.232541 13.6568 0.233008 12.4999 0.233008V1.43301ZM19.7666 7.49967C19.7666 6.3428 19.767 5.43906 19.7078 4.71416C19.648 3.98225 19.5244 3.37998 19.247 2.83565L18.1778 3.38044C18.3546 3.72741 18.4581 4.15418 18.5118 4.81187C18.5661 5.47657 18.5666 6.323 18.5666 7.49967H19.7666ZM16.6192 1.82175C17.2903 2.1637 17.8359 2.70933 18.1778 3.38044L19.247 2.83565C18.7901 1.93875 18.0608 1.20954 17.1639 0.752543L16.6192 1.82175ZM7.49992 0.233008C6.34304 0.233008 5.4393 0.232541 4.7144 0.291768C3.9825 0.351567 3.38023 0.475193 2.8359 0.752543L3.38069 1.82175C3.72765 1.64496 4.15442 1.54152 4.81212 1.48778C5.47682 1.43347 6.32324 1.43301 7.49992 1.43301V0.233008ZM1.43325 7.49967C1.43325 6.323 1.43372 5.47657 1.48803 4.81187C1.54176 4.15418 1.64521 3.72741 1.822 3.38044L0.752787 2.83565C0.475437 3.37998 0.351811 3.98225 0.292012 4.71416C0.232785 5.43906 0.233252 6.3428 0.233252 7.49967H1.43325ZM2.8359 0.752543C1.93899 1.20954 1.20978 1.93875 0.752787 2.83565L1.822 3.38044C2.16394 2.70933 2.70957 2.1637 3.38069 1.82175L2.8359 0.752543Z" fill="currentColor"/>
</g>
<defs>
<clipPath id="clip0_6471_24903">
<rect width="20" height="20" fill="white"/>
</clipPath>
</defs>
</svg>
