<svg width="20" height="20" viewBox="0 0 20 20" fill="none" xmlns="http://www.w3.org/2000/svg">
<path d="M9.46138 7.7943L9.88564 7.37004L9.46138 7.7943ZM12.2055 10.5384L11.7812 10.9626L12.2055 10.5384ZM12.7947 10.5384L13.219 10.9626L13.219 10.9626L12.7947 10.5384ZM17.9243 6.25727C18.1587 6.02296 18.1587 5.64306 17.9243 5.40874C17.69 5.17443 17.3101 5.17443 17.0758 5.40874L17.9243 6.25727ZM4.57582 11.2421C4.3415 11.4764 4.3415 11.8563 4.57582 12.0906C4.81013 12.3249 5.19003 12.3249 5.42435 12.0906L4.57582 11.2421ZM8.87212 7.7943L9.29639 8.21857V8.21857L8.87212 7.7943ZM14.1667 4.39967C13.8354 4.39967 13.5667 4.6683 13.5667 4.99967C13.5667 5.33105 13.8354 5.59967 14.1667 5.59967V4.39967ZM17.7334 9.16634C17.7334 9.49771 18.002 9.76634 18.3334 9.76634C18.6648 9.76634 18.9334 9.49771 18.9334 9.16634H17.7334ZM18.3334 17.2663C18.6648 17.2663 18.9334 16.9977 18.9334 16.6663C18.9334 16.335 18.6648 16.0663 18.3334 16.0663V17.2663ZM2.26675 3.33301C2.26675 3.00164 1.99812 2.73301 1.66675 2.73301C1.33538 2.73301 1.06675 3.00164 1.06675 3.33301H2.26675ZM3.48678 16.303L3.75917 15.7684L3.48678 16.303ZM2.03006 14.8463L1.49546 15.1187L2.03006 14.8463ZM9.03711 8.21857L11.7812 10.9626L12.6297 10.1141L9.88564 7.37004L9.03711 8.21857ZM13.219 10.9626L17.9243 6.25727L17.0758 5.40874L12.3704 10.1141L13.219 10.9626ZM5.42435 12.0906L9.29639 8.21857L8.44786 7.37004L4.57582 11.2421L5.42435 12.0906ZM11.7812 10.9626C12.1782 11.3597 12.8219 11.3597 13.219 10.9626L12.3704 10.1141C12.442 10.0425 12.5581 10.0425 12.6297 10.1141L11.7812 10.9626ZM9.88564 7.37004C9.48861 6.97301 8.84489 6.973 8.44786 7.37004L9.29639 8.21857C9.22479 8.29016 9.10871 8.29016 9.03711 8.21857L9.88564 7.37004ZM14.1667 5.59967H17.9167V4.39967H14.1667V5.59967ZM17.7334 5.41634V9.16634H18.9334V5.41634H17.7334ZM17.9167 5.59967C17.8155 5.59967 17.7334 5.51759 17.7334 5.41634H18.9334C18.9334 4.85485 18.4782 4.39967 17.9167 4.39967V5.59967ZM18.3334 16.0663H7.00008V17.2663H18.3334V16.0663ZM2.26675 11.333V3.33301H1.06675V11.333H2.26675ZM7.00008 16.0663C6.05676 16.0663 5.38535 16.0659 4.85961 16.0229C4.34088 15.9805 4.01701 15.8998 3.75917 15.7684L3.21439 16.8376C3.66959 17.0696 4.16895 17.1705 4.7619 17.2189C5.34784 17.2668 6.07656 17.2663 7.00008 17.2663V16.0663ZM1.06675 11.333C1.06675 12.2565 1.06628 12.9853 1.11415 13.5712C1.1626 14.1641 1.26352 14.6635 1.49546 15.1187L2.56466 14.5739C2.43329 14.3161 2.35255 13.9922 2.31017 13.4735C2.26721 12.9477 2.26675 12.2763 2.26675 11.333H1.06675ZM3.75917 15.7684C3.24486 15.5064 2.82672 15.0882 2.56466 14.5739L1.49546 15.1187C1.87256 15.8588 2.47428 16.4605 3.21439 16.8376L3.75917 15.7684Z" fill="currentColor"/>
</svg>
