<svg width="102" height="35" viewBox="0 0 102 35" fill="none" xmlns="http://www.w3.org/2000/svg">
<path opacity="0.1" fill-rule="evenodd" clip-rule="evenodd" d="M1 23.8012C1 23.8012 4.94192 23.0082 9.42366 24.9133C17.9476 28.5367 18.4339 21.9014 21.5947 18.702C24.4865 15.7749 26.8814 17.5608 30.1012 21.1404C32.4759 23.7805 35.9367 28.2122 39.5208 27.4988C42.7971 26.8466 45.1196 21.6489 49.6608 20.327C53.26 19.2793 56.185 22.1575 60.3294 21.1404C65.9518 19.7606 68.4632 11.6377 72.4815 11.6377C77.4409 11.6377 80.9327 4.76758 85.4444 4.76758C89.9295 4.76758 90.5383 8.80737 95.4444 11.6377C99.1952 13.8015 101 11.6377 101 11.6377V34.8244H1V23.8012Z" fill="url(#paint0_linear_6001_111409)"/>
<path d="M1 20.1998C1 20.1998 4.94192 19.4182 9.42366 21.2958C17.9476 24.8667 18.4339 18.3275 21.5947 15.1744C24.4865 12.2897 26.8814 14.0497 30.1012 17.5775C32.4759 20.1794 35.9367 24.547 39.5208 23.8439C42.7971 23.2011 45.1196 18.0786 49.6608 16.7758C53.26 15.7433 56.185 18.5799 60.3294 17.5775C65.9518 16.2177 68.4632 8.21233 72.4815 8.21233C77.4409 8.21233 80.9327 1.42529 85.4444 1.42529C89.9295 1.42529 90.1679 5.42297 95.0741 8.21233C98.8249 10.3448 101 8.21233 101 8.21233" stroke="url(#paint1_linear_6001_111409)" stroke-width="2" stroke-linecap="round" stroke-linejoin="round"/>
<defs>
<linearGradient id="paint0_linear_6001_111409" x1="19.0726" y1="20.0186" x2="19.0726" y2="34.8244" gradientUnits="userSpaceOnUse">
<stop stop-color="#F5BB11"/>
<stop offset="1" stop-color="white" stop-opacity="0.01"/>
</linearGradient>
<linearGradient id="paint1_linear_6001_111409" x1="-32.75" y1="-1.24588" x2="-16.0518" y2="52.4709" gradientUnits="userSpaceOnUse">
<stop stop-color="#E58F2A"/>
<stop offset="1" stop-color="#FFD600"/>
</linearGradient>
</defs>
</svg>
