<svg width="20" height="20" viewBox="0 0 20 20" fill="none" xmlns="http://www.w3.org/2000/svg">
<path d="M6.66659 11.067C6.33521 11.067 6.06659 11.3356 6.06659 11.667C6.06659 11.9984 6.33521 12.267 6.66659 12.267V11.067ZM8.33325 12.267C8.66462 12.267 8.93325 11.9984 8.93325 11.667C8.93325 11.3356 8.66462 11.067 8.33325 11.067V12.267ZM6.66659 7.73366C6.33521 7.73366 6.06659 8.00229 6.06659 8.33366C6.06659 8.66503 6.33521 8.93366 6.66659 8.93366V7.73366ZM11.6666 8.93366C11.998 8.93366 12.2666 8.66503 12.2666 8.33366C12.2666 8.00229 11.998 7.73366 11.6666 7.73366V8.93366ZM6.66659 4.40033C6.33521 4.40033 6.06659 4.66895 6.06659 5.00033C6.06659 5.3317 6.33521 5.60033 6.66659 5.60033V4.40033ZM11.6666 5.60033C11.998 5.60033 12.2666 5.3317 12.2666 5.00033C12.2666 4.66895 11.998 4.40033 11.6666 4.40033V5.60033ZM14.3999 9.58366C14.3999 9.91503 14.6685 10.1837 14.9999 10.1837C15.3313 10.1837 15.5999 9.91503 15.5999 9.58366H14.3999ZM8.33325 17.267C8.66462 17.267 8.93325 16.9984 8.93325 16.667C8.93325 16.3356 8.66462 16.067 8.33325 16.067V17.267ZM4.23163 16.4793L4.50821 15.9469L4.50821 15.9469L4.23163 16.4793ZM3.5209 15.7686L2.98845 16.0452L2.98845 16.0452L3.5209 15.7686ZM14.1015 1.85464L13.825 2.38708L13.825 2.38708L14.1015 1.85464ZM14.8123 2.56537L14.2798 2.84195V2.84195L14.8123 2.56537ZM4.23163 1.85464L3.95504 1.32219L4.23163 1.85464ZM3.5209 2.56537L2.98845 2.28878L3.5209 2.56537ZM17.0908 13.7579C17.3252 13.5236 17.3252 13.1437 17.0908 12.9094C16.8565 12.6751 16.4766 12.6751 16.2423 12.9094L17.0908 13.7579ZM13.0386 16.3724L12.6144 16.7966L13.0386 16.3724ZM12.0908 14.5761C11.8565 14.3417 11.4766 14.3417 11.2423 14.5761C11.008 14.8104 11.008 15.1903 11.2423 15.4246L12.0908 14.5761ZM6.66659 12.267H8.33325V11.067H6.66659V12.267ZM6.66659 8.93366H11.6666V7.73366H6.66659V8.93366ZM6.66659 5.60033H11.6666V4.40033H6.66659V5.60033ZM6.01659 2.26699H12.3166V1.06699H6.01659V2.26699ZM14.3999 4.35033V9.58366H15.5999V4.35033H14.3999ZM8.33325 16.067H6.01659V17.267H8.33325V16.067ZM3.93325 13.9837V4.35033H2.73325V13.9837H3.93325ZM6.01659 16.067C5.53194 16.067 5.20514 16.0665 4.95329 16.0456C4.70862 16.0253 4.58891 15.9888 4.50821 15.9469L3.95504 17.0118C4.23557 17.1575 4.53376 17.2149 4.85398 17.2415C5.16701 17.2675 5.55208 17.267 6.01659 17.267V16.067ZM2.73325 13.9837C2.73325 14.4482 2.73277 14.8332 2.75877 15.1463C2.78536 15.4665 2.84272 15.7647 2.98845 16.0452L4.05334 15.492C4.01142 15.4113 3.97497 15.2916 3.95465 15.047C3.93373 14.7951 3.93325 14.4683 3.93325 13.9837H2.73325ZM4.50821 15.9469C4.31339 15.8457 4.15454 15.6868 4.05334 15.492L2.98845 16.0452C3.2035 16.4592 3.54105 16.7967 3.95504 17.0118L4.50821 15.9469ZM12.3166 2.26699C12.8012 2.26699 13.128 2.26747 13.3799 2.28839C13.6245 2.30871 13.7443 2.34517 13.825 2.38708L14.3781 1.32219C14.0976 1.17646 13.7994 1.1191 13.4792 1.09251C13.1662 1.06651 12.7811 1.06699 12.3166 1.06699V2.26699ZM15.5999 4.35033C15.5999 3.88582 15.6004 3.50075 15.5744 3.18772C15.5478 2.86751 15.4904 2.56932 15.3447 2.28878L14.2798 2.84195C14.3217 2.92265 14.3582 3.04236 14.3785 3.28703C14.3994 3.53888 14.3999 3.86568 14.3999 4.35033H15.5999ZM13.825 2.38708C14.0198 2.48829 14.1786 2.64713 14.2798 2.84195L15.3447 2.28878C15.1297 1.87479 14.7921 1.53724 14.3781 1.32219L13.825 2.38708ZM6.01659 1.06699C5.55208 1.06699 5.16701 1.06651 4.85398 1.09251C4.53376 1.1191 4.23558 1.17646 3.95504 1.32219L4.50821 2.38708C4.58891 2.34517 4.70862 2.30871 4.95329 2.28839C5.20514 2.26747 5.53194 2.26699 6.01659 2.26699V1.06699ZM3.93325 4.35033C3.93325 3.86568 3.93373 3.53888 3.95465 3.28703C3.97497 3.04236 4.01142 2.92265 4.05334 2.84195L2.98845 2.28878C2.84272 2.56932 2.78536 2.86751 2.75877 3.18772C2.73277 3.50075 2.73325 3.88582 2.73325 4.35033H3.93325ZM3.95504 1.32219C3.54105 1.53724 3.2035 1.87479 2.98845 2.28878L4.05334 2.84195C4.15454 2.64713 4.31339 2.48829 4.50821 2.38708L3.95504 1.32219ZM14.0521 16.7966L17.0908 13.7579L16.2423 12.9094L13.2036 15.9481L14.0521 16.7966ZM13.4629 15.9481L12.0908 14.5761L11.2423 15.4246L12.6144 16.7966L13.4629 15.9481ZM13.2036 15.9481C13.2752 15.8765 13.3913 15.8765 13.4629 15.9481L12.6144 16.7966C13.0114 17.1937 13.6551 17.1937 14.0521 16.7966L13.2036 15.9481Z" fill="url(#paint0_linear_8097_89019)"/>
<defs>
<linearGradient id="paint0_linear_8097_89019" x1="-4.25008" y1="-6.67676" x2="18.9968" y2="13.0816" gradientUnits="userSpaceOnUse">
<stop stop-color="#299FFF"/>
<stop offset="1" stop-color="#0202A8"/>
</linearGradient>
</defs>
</svg>
