<svg width="16" height="18" viewBox="0 0 16 18" fill="none" xmlns="http://www.w3.org/2000/svg">
<path d="M4.66634 3.99996H11.333M4.66634 7.33329H11.333M4.66634 10.6666H11.333M2.99967 0.666626H12.9997C13.9201 0.666626 14.6663 1.41282 14.6663 2.33329V14.6366C14.6663 15.8755 13.3625 16.6814 12.2543 16.1273L12.0784 16.0393C11.6092 15.8047 11.0569 15.8047 10.5877 16.0393L8.74503 16.9606C8.27582 17.1952 7.72353 17.1952 7.25432 16.9606L5.4117 16.0393C4.94248 15.8047 4.3902 15.8047 3.92099 16.0393L3.74503 16.1273C2.63686 16.6814 1.33301 15.8755 1.33301 14.6366V2.33329C1.33301 1.41282 2.0792 0.666626 2.99967 0.666626Z" stroke="url(#paint0_linear_10415_1782)" stroke-width="1.2" stroke-linecap="round"/>
<defs>
<linearGradient id="paint0_linear_10415_1782" x1="-6.25032" y1="-8.49478" x2="18.7874" y2="10.8863" gradientUnits="userSpaceOnUse">
<stop stop-color="#299FFF"/>
<stop offset="1" stop-color="#0202A8"/>
</linearGradient>
</defs>
</svg>
