<svg width="25" height="24" viewBox="0 0 25 24" fill="none" xmlns="http://www.w3.org/2000/svg">
<path d="M9.5 22V13.9614C9.5 13.3271 10.0037 12.813 10.625 12.813H15.125C15.7463 12.813 16.25 13.3271 16.25 13.9614V22M3.875 19.7032V11.0226C3.875 9.64488 4.48082 8.33989 5.52543 7.46745L11.4502 2.51916C12.279 1.82695 13.471 1.82694 14.2998 2.51916L20.2246 7.46745C21.2692 8.33989 21.875 9.64488 21.875 11.0226V19.7032C21.875 20.9717 20.8676 22 19.625 22H17.375H8.375H6.125C4.88236 22 3.875 20.9717 3.875 19.7032Z" stroke="black" stroke-width="1.5" stroke-linecap="round"/>
</svg>
