<svg width="18" height="24" viewBox="0 0 18 24" fill="none" xmlns="http://www.w3.org/2000/svg">
<path d="M17.185 3.54462V24H0V0H13.6211L17.185 3.54462Z" fill="#3C30DB"/>
<path d="M13.6211 3.54462V0L17.185 3.54462H13.6211Z" fill="#0202A8"/>
<path d="M7.27386 8.01499C7.27386 8.66453 6.7448 9.19072 6.09034 9.19072C5.43589 9.19072 4.9082 8.66453 4.9082 8.01499C4.9082 7.36545 5.43726 6.83789 6.09034 6.83789C6.74343 6.83789 7.27386 7.36408 7.27386 8.01499Z" fill="white"/>
<path d="M12.6875 15.1806H3.87571C3.66305 15.1806 3.5301 14.9515 3.6378 14.7703L5.77054 11.0933C5.87686 10.9106 6.1426 10.9106 6.24772 11.0933L6.75273 11.963L8.7867 8.45837C9.13093 7.86674 9.99031 7.86674 10.3347 8.45837L13.4622 13.8474C13.8064 14.439 13.3761 15.1805 12.6877 15.1805L12.6875 15.1806Z" fill="white"/>
<path d="M4.91804 20.5734C4.8234 20.5734 4.73528 20.5377 4.67344 20.4729C4.61143 20.4111 4.57227 20.3269 4.57227 20.2327C4.57227 20.038 4.7224 19.8887 4.91822 19.8887C5.01286 19.8887 5.09772 19.9278 5.15956 19.9893C5.22157 20.0508 5.26073 20.1386 5.26073 20.2326C5.26073 20.3265 5.22157 20.4109 5.15956 20.4728C5.09772 20.5375 5.01286 20.5732 4.91822 20.5732L4.91804 20.5734Z" fill="white"/>
<path d="M6.03298 19.7207C6.11131 19.6718 6.17658 19.6913 6.23207 19.7725C6.2939 19.8666 6.38529 19.9606 6.49952 19.9606C6.57767 19.9606 6.65617 19.9476 6.71475 19.8924C6.77349 19.8406 6.81266 19.7368 6.81266 19.555V18.2701C6.81266 18.1725 6.86161 18.124 6.95935 18.124H7.28555C7.38346 18.124 7.43242 18.1727 7.43242 18.2701V19.6298C7.43242 19.8341 7.3802 20.0711 7.23659 20.2592C7.09299 20.4476 6.86127 20.5836 6.49917 20.5836C6.25113 20.5836 6.04552 20.5025 5.88577 20.3438C5.80418 20.2626 5.73908 20.162 5.68995 20.0808C5.64099 19.9997 5.67037 19.9315 5.7487 19.883L6.03264 19.7207H6.03298Z" fill="white"/>
<path d="M9.84622 18.9077C9.84622 19.1447 9.75157 19.3882 9.57207 19.5276C9.42864 19.6412 9.23934 19.7027 9.03047 19.7027H8.56393V20.3742C8.56393 20.4718 8.51498 20.5203 8.41707 20.5203H8.09413C7.99622 20.5203 7.94727 20.4716 7.94727 20.3742V18.2652C7.94727 18.1677 7.99622 18.1191 8.09413 18.1191H9.08595C9.29483 18.1191 9.46763 18.1806 9.60797 18.3009C9.66019 18.3496 9.72203 18.4275 9.76772 18.528C9.81341 18.6318 9.84605 18.7618 9.84605 18.9076L9.84622 18.9077ZM9.2524 18.9077C9.2524 18.7941 9.18386 18.7099 9.05348 18.7099H8.5641V19.1122H9.03064C9.14487 19.1122 9.2524 19.0343 9.2524 18.9077Z" fill="white"/>
<path d="M11.5218 20.5765C11.1728 20.5765 10.8562 20.4335 10.6279 20.2066C10.3995 19.9794 10.2559 19.6679 10.2559 19.3206C10.2559 18.9733 10.3995 18.6554 10.6279 18.4283C10.8562 18.2011 11.1728 18.0615 11.5218 18.0615C11.8709 18.0615 12.1742 18.1881 12.4092 18.4217C12.4777 18.4961 12.468 18.5677 12.3929 18.6294L12.1351 18.8305C12.0602 18.8923 12.0047 18.8826 11.9296 18.8209C11.8121 18.7234 11.675 18.6748 11.5218 18.6748C11.3423 18.6748 11.1793 18.7463 11.0616 18.8629C10.9442 18.9798 10.8725 19.1419 10.8725 19.3206C10.8725 19.4993 10.9443 19.6613 11.0616 19.7846C11.1791 19.908 11.3423 19.9891 11.5218 19.9891C11.6622 19.9891 11.7664 19.9597 11.8448 19.921C11.9198 19.8853 11.9655 19.8398 11.9916 19.8106V19.655H11.5904C11.4925 19.655 11.4435 19.6063 11.4435 19.5089V19.3078C11.4435 19.2103 11.4925 19.1617 11.5904 19.1617H12.4614C12.5593 19.1617 12.6081 19.2104 12.6081 19.3078V19.8952C12.6081 19.9633 12.5951 20.0151 12.569 20.0575C12.3601 20.3722 12.0176 20.5767 11.5217 20.5767L11.5218 20.5765Z" fill="white"/>
</svg>
