<svg width="24" height="24" viewBox="0 0 24 24" fill="none" xmlns="http://www.w3.org/2000/svg">
<path d="M23.9997 12.5398C24.001 12.3582 23.904 12.1892 23.7441 12.0943H23.7413L23.7312 12.0889L15.415 7.32606C15.379 7.30259 15.3418 7.28113 15.3033 7.26181C14.9822 7.10153 14.6008 7.10153 14.2797 7.26181C14.2412 7.28115 14.204 7.30259 14.1681 7.32606L5.85181 12.0889L5.84177 12.0943C5.5876 12.2472 5.50968 12.5705 5.66774 12.8164C5.71431 12.8889 5.77845 12.9492 5.8546 12.9923L14.1709 17.7551C14.2069 17.7783 14.2442 17.7998 14.2825 17.8193C14.6036 17.9796 14.985 17.9796 15.3061 17.8193C15.3445 17.7998 15.3817 17.7784 15.4178 17.7551L23.734 12.9923C23.9002 12.8986 24.0016 12.7258 23.9997 12.5398Z" fill="#0A2767"/>
<path d="M6.82144 9.36013H12.2789V14.2001H6.82144V9.36013ZM22.8836 4.44019V2.22619C22.8967 1.67264 22.4438 1.21346 21.8717 1.2002H7.70945C7.13731 1.21346 6.68444 1.67264 6.69754 2.22619V4.44019L15.0696 6.60019L22.8836 4.44019Z" fill="#0364B8"/>
<path d="M6.69727 4.44043H12.2787V9.30043H6.69727V4.44043Z" fill="#0078D4"/>
<path d="M17.8607 4.44043H12.2793V9.30043L17.8607 14.1604H22.8839V9.30043L17.8607 4.44043Z" fill="#28A8EA"/>
<path d="M12.2793 9.2998H17.8607V14.1598H12.2793V9.2998Z" fill="#0078D4"/>
<path d="M12.2793 14.1602H17.8607V19.0202H12.2793V14.1602Z" fill="#0364B8"/>
<path d="M6.82227 14.2002H12.2798V18.6001H6.82227V14.2002Z" fill="#14447D"/>
<path d="M17.8613 14.1602H22.8846V19.0202H17.8613V14.1602Z" fill="#0078D4"/>
<path d="M23.745 12.9629L23.7344 12.9683L15.4181 17.4935C15.3818 17.5151 15.345 17.5356 15.3065 17.5539C15.1652 17.619 15.0118 17.6557 14.8555 17.6619L14.4012 17.4049C14.3628 17.3863 14.3255 17.3655 14.2896 17.3428L5.86166 12.6891H5.85775L5.58203 12.54V21.7006C5.58633 22.3118 6.10176 22.8039 6.73347 22.8H22.867C22.8765 22.8 22.8849 22.7957 22.8949 22.7957C23.0284 22.7875 23.1599 22.7609 23.2856 22.7169C23.34 22.6946 23.3924 22.6682 23.4425 22.638C23.4799 22.6175 23.5441 22.5727 23.5441 22.5727C23.83 22.368 23.9992 22.0447 24.0006 21.7006V12.54C24.0004 12.7153 23.9027 12.8768 23.745 12.9629Z" fill="url(#paint0_linear_6643_23259)"/>
<path opacity="0.5" d="M23.5537 12.5043V13.0659L14.8579 18.8585L5.85506 12.6933C5.85506 12.6903 5.85256 12.6879 5.84948 12.6879L5.02344 12.2073V11.8023L5.3639 11.7969L6.0839 12.1965L6.10063 12.2019L6.16203 12.2397C6.16203 12.2397 14.6234 16.9107 14.6457 16.9215L14.9695 17.1051C14.9974 17.0943 15.0253 17.0835 15.0588 17.0727C15.0755 17.0619 23.4587 12.4989 23.4587 12.4989L23.5537 12.5043Z" fill="#0A2767"/>
<path d="M23.745 12.9629L23.7344 12.9688L15.4181 17.494C15.3818 17.5156 15.345 17.5361 15.3065 17.5545C14.9835 17.7071 14.6058 17.7071 14.2828 17.5545C14.2446 17.5361 14.2073 17.516 14.1712 17.494L5.85496 12.9688L5.84492 12.9629C5.68436 12.8786 5.5837 12.7167 5.58203 12.54V21.7006C5.58603 22.3117 6.10128 22.8039 6.73286 22.8C6.73286 22.8 6.73289 22.8 6.73292 22.8H22.8497C23.4813 22.8039 23.9966 22.3117 24.0006 21.7006C24.0006 21.7006 24.0006 21.7006 24.0006 21.7006V12.54C24.0004 12.7153 23.9027 12.8768 23.745 12.9629Z" fill="#1490DF"/>
<path opacity="0.1" d="M15.5381 17.4268L15.4136 17.4943C15.3775 17.5165 15.3403 17.5369 15.302 17.5553C15.1648 17.6204 15.0157 17.6586 14.8633 17.6676L18.0274 21.2878L23.5468 22.5746C23.6981 22.464 23.8184 22.3187 23.8968 22.1518L15.5381 17.4268Z" fill="black"/>
<path opacity="0.05" d="M16.1018 17.1201L15.4136 17.4943C15.3775 17.5166 15.3403 17.5369 15.302 17.5554C15.1648 17.6205 15.0157 17.6587 14.8633 17.6677L16.3457 21.6221L23.5485 22.573C23.8322 22.3669 23.9993 22.0437 23.9995 21.7004V21.5821L16.1018 17.1201Z" fill="black"/>
<path d="M6.74854 22.8H22.8481C23.0958 22.8012 23.3374 22.7255 23.5374 22.584L14.4006 17.406C14.3622 17.3873 14.325 17.3666 14.289 17.3439L5.86109 12.6902H5.85719L5.58203 12.54V21.6693C5.5814 22.2932 6.10366 22.7994 6.74854 22.8Z" fill="#28A8EA"/>
<path opacity="0.1" d="M13.396 6.50935V18.0275C13.395 18.4314 13.1412 18.7944 12.7541 18.9455C12.6342 18.9954 12.5051 19.0211 12.3746 19.0212H5.58203V6.05953H6.69831V5.51953H12.3746C12.9384 5.5216 13.3948 5.96381 13.396 6.50935Z" fill="black"/>
<path opacity="0.2" d="M12.8378 7.04943V18.5676C12.8392 18.6981 12.8107 18.8272 12.7541 18.9456C12.5991 19.3153 12.2288 19.5578 11.8164 19.5596H5.58203V6.05962H11.8164C11.9784 6.05804 12.138 6.09713 12.2797 6.17302C12.6218 6.33979 12.8377 6.67878 12.8378 7.04943Z" fill="black"/>
<path opacity="0.2" d="M12.8378 7.04943V17.4876C12.8351 18.0329 12.38 18.4749 11.8165 18.4796H5.58203V6.05962H11.8164C11.9784 6.05804 12.138 6.09713 12.2797 6.17302C12.6218 6.33979 12.8377 6.67878 12.8378 7.04943Z" fill="black"/>
<path opacity="0.2" d="M12.2797 7.04939V17.4876C12.2791 18.0337 11.8228 18.4769 11.2583 18.4796H5.58203V6.05957H11.2583C11.8227 6.05986 12.28 6.50278 12.2797 7.04885C12.2797 7.04903 12.2797 7.04921 12.2797 7.04939Z" fill="black"/>
<path d="M1.02307 6.05957H11.256C11.821 6.05957 12.2791 6.50273 12.2791 7.04939V16.9497C12.2791 17.4964 11.821 17.9396 11.256 17.9396H1.02307C0.458037 17.9396 0 17.4964 0 16.9497V7.04939C0 6.50273 0.45805 6.05957 1.02307 6.05957Z" fill="url(#paint1_linear_6643_23259)"/>
<path d="M3.19828 10.2115C3.45043 9.69177 3.85743 9.25679 4.36703 8.96252C4.93138 8.64992 5.57393 8.49408 6.22396 8.51215C6.82643 8.49951 7.42091 8.64727 7.94247 8.93929C8.43286 9.22223 8.82781 9.63679 9.0794 10.1327C9.35339 10.6791 9.48993 11.2805 9.47792 11.8877C9.49119 12.5223 9.3507 13.1511 9.06768 13.7237C8.8101 14.2373 8.40262 14.6666 7.89559 14.9587C7.35392 15.2596 6.73736 15.4113 6.11289 15.3971C5.49756 15.4115 4.88997 15.2621 4.35643 14.9651C3.8618 14.6818 3.46189 14.2668 3.20443 13.7696C2.92881 13.231 2.79064 12.6365 2.80145 12.0356C2.78997 11.4064 2.92563 10.7829 3.19828 10.2115ZM4.44405 13.1437C4.57849 13.4723 4.80647 13.7573 5.10153 13.9656C5.40208 14.1688 5.76195 14.2737 6.1285 14.2648C6.51887 14.2797 6.90365 14.1713 7.22469 13.9559C7.51602 13.7482 7.73802 13.4625 7.8632 13.134C8.00314 12.7672 8.0722 12.3786 8.06692 11.9876C8.07125 11.5929 8.00633 11.2003 7.87492 10.8266C7.75886 10.4892 7.54402 10.1917 7.2565 9.97015C6.94351 9.74456 6.55976 9.63014 6.1698 9.64615C5.79531 9.63677 5.42737 9.74244 5.11883 9.94801C4.81878 10.1572 4.58647 10.4447 4.44907 10.7769C4.14426 11.5384 4.14268 12.3823 4.4446 13.1448L4.44405 13.1437Z" fill="white"/>
<path d="M17.8613 4.44043H22.8846V9.30043H17.8613V4.44043Z" fill="#50D9FF"/>
<defs>
<linearGradient id="paint0_linear_6643_23259" x1="14.7913" y1="12.54" x2="14.7913" y2="22.8001" gradientUnits="userSpaceOnUse">
<stop stop-color="#35B8F1"/>
<stop offset="1" stop-color="#28A8EA"/>
</linearGradient>
<linearGradient id="paint1_linear_6643_23259" x1="2.13312" y1="5.28615" x2="9.75543" y2="18.9311" gradientUnits="userSpaceOnUse">
<stop stop-color="#1784D9"/>
<stop offset="0.5" stop-color="#107AD5"/>
<stop offset="1" stop-color="#0A63C9"/>
</linearGradient>
</defs>
</svg>
