<svg width="16" height="16" viewBox="0 0 16 16" fill="none" xmlns="http://www.w3.org/2000/svg">
<path d="M4.06644 4.66667C4.06644 4.99804 4.33507 5.26667 4.66644 5.26667C4.99781 5.26667 5.26644 4.99804 5.26644 4.66667H4.06644ZM5.26644 11.3333C5.26644 11.002 4.99781 10.7333 4.66644 10.7333C4.33507 10.7333 4.06644 11.002 4.06644 11.3333H5.26644ZM5.39445 13.8547L5.66685 13.3201L5.66685 13.3201L5.39445 13.8547ZM4.81177 13.272L4.27716 13.5444L4.27716 13.5444L4.81177 13.272ZM13.8544 13.272L14.3891 13.5444V13.5444L13.8544 13.272ZM13.2718 13.8547L12.9994 13.3201L12.9994 13.3201L13.2718 13.8547ZM13.2718 2.14532L12.9994 2.67993V2.67993L13.2718 2.14532ZM13.8544 2.72801L13.3198 3.00041L13.8544 2.72801ZM4.81177 2.72801L5.34637 3.00041L4.81177 2.72801ZM5.39445 2.14532L5.12206 1.61072V1.61072L5.39445 2.14532ZM9.33311 8.6C9.66448 8.6 9.93311 8.33137 9.93311 8C9.93311 7.66863 9.66448 7.4 9.33311 7.4V8.6ZM1.99977 7.4C1.6684 7.4 1.39977 7.66863 1.39977 8C1.39977 8.33137 1.6684 8.6 1.99977 8.6V7.4ZM3.16567 6.33282C3.34948 6.0571 3.27498 5.68458 2.99926 5.50077C2.72354 5.31696 2.35102 5.39146 2.16721 5.66718L3.16567 6.33282ZM1.45637 7.8151L1.9556 8.14792L1.45637 7.8151ZM1.45637 8.1849L1.9556 7.85208L1.45637 8.1849ZM2.16721 10.3328C2.35102 10.6085 2.72354 10.683 2.99926 10.4992C3.27498 10.3154 3.34948 9.9429 3.16567 9.66718L2.16721 10.3328ZM5.26644 4.66667V4.13333H4.06644V4.66667H5.26644ZM6.79977 2.6H11.8664V1.4H6.79977V2.6ZM13.3998 4.13333V11.8667H14.5998V4.13333H13.3998ZM11.8664 13.4H6.79977V14.6H11.8664V13.4ZM5.26644 11.8667V11.3333H4.06644V11.8667H5.26644ZM6.79977 13.4C6.4165 13.4 6.16514 13.3995 5.9729 13.3838C5.78767 13.3687 5.71077 13.3425 5.66685 13.3201L5.12206 14.3893C5.36335 14.5122 5.61574 14.5586 5.87518 14.5798C6.12762 14.6005 6.43631 14.6 6.79977 14.6V13.4ZM4.06644 11.8667C4.06644 12.2301 4.06597 12.5388 4.0866 12.7913C4.1078 13.0507 4.15422 13.3031 4.27716 13.5444L5.34637 12.9996C5.32399 12.9557 5.29775 12.8788 5.28261 12.6935C5.26691 12.5013 5.26644 12.2499 5.26644 11.8667H4.06644ZM5.66685 13.3201C5.52886 13.2498 5.41668 13.1376 5.34637 12.9996L4.27716 13.5444C4.46252 13.9082 4.75828 14.2039 5.12206 14.3893L5.66685 13.3201ZM13.3998 11.8667C13.3998 12.2499 13.3993 12.5013 13.3836 12.6935C13.3685 12.8788 13.3422 12.9557 13.3198 12.9996L14.3891 13.5444C14.512 13.3031 14.5584 13.0507 14.5796 12.7913C14.6002 12.5388 14.5998 12.2301 14.5998 11.8667H13.3998ZM11.8664 14.6C12.2299 14.6 12.5386 14.6005 12.791 14.5798C13.0505 14.5586 13.3029 14.5122 13.5442 14.3893L12.9994 13.3201C12.9554 13.3425 12.8785 13.3687 12.6933 13.3838C12.5011 13.3995 12.2497 13.4 11.8664 13.4V14.6ZM13.3198 12.9996C13.2495 13.1376 13.1374 13.2498 12.9994 13.3201L13.5442 14.3893C13.9079 14.2039 14.2037 13.9082 14.3891 13.5444L13.3198 12.9996ZM11.8664 2.6C12.2497 2.6 12.5011 2.60047 12.6933 2.61617C12.8785 2.63131 12.9554 2.65755 12.9994 2.67993L13.5442 1.61072C13.3029 1.48778 13.0505 1.44136 12.791 1.42016C12.5386 1.39953 12.2299 1.4 11.8664 1.4V2.6ZM14.5998 4.13333C14.5998 3.76987 14.6002 3.46118 14.5796 3.20874C14.5584 2.9493 14.512 2.69691 14.3891 2.45562L13.3198 3.00041C13.3422 3.04433 13.3685 3.12123 13.3836 3.30646C13.3993 3.4987 13.3998 3.75006 13.3998 4.13333H14.5998ZM12.9994 2.67993C13.1374 2.75024 13.2495 2.86242 13.3198 3.00041L14.3891 2.45562C14.2037 2.09184 13.9079 1.79608 13.5442 1.61072L12.9994 2.67993ZM5.26644 4.13333C5.26644 3.75006 5.26691 3.4987 5.28261 3.30646C5.29775 3.12123 5.32399 3.04433 5.34637 3.00041L4.27716 2.45562C4.15422 2.69691 4.1078 2.9493 4.0866 3.20874C4.06597 3.46118 4.06644 3.76987 4.06644 4.13333H5.26644ZM6.79977 1.4C6.43631 1.4 6.12762 1.39953 5.87518 1.42016C5.61574 1.44136 5.36335 1.48778 5.12206 1.61072L5.66685 2.67993C5.71077 2.65755 5.78767 2.63131 5.9729 2.61617C6.16514 2.60047 6.41651 2.6 6.79977 2.6V1.4ZM5.34637 3.00041C5.41668 2.86242 5.52886 2.75024 5.66685 2.67993L5.12206 1.61072C4.75828 1.79608 4.46252 2.09184 4.27716 2.45562L5.34637 3.00041ZM9.33311 7.4H1.99977V8.6H9.33311V7.4ZM2.16721 5.66718L0.957144 7.48228L1.9556 8.14792L3.16567 6.33282L2.16721 5.66718ZM0.957144 8.51772L2.16721 10.3328L3.16567 9.66718L1.9556 7.85208L0.957144 8.51772ZM0.957144 7.48228C0.748139 7.79579 0.74814 8.20421 0.957144 8.51772L1.9556 7.85208C2.01532 7.94165 2.01532 8.05835 1.9556 8.14792L0.957144 7.48228Z" fill="url(#paint0_linear_6354_65153)"/>
<defs>
<linearGradient id="paint0_linear_6354_65153" x1="-5.76551" y1="-4.675" x2="13.0783" y2="14.2429" gradientUnits="userSpaceOnUse">
<stop stop-color="#299FFF"/>
<stop offset="1" stop-color="#0202A8"/>
</linearGradient>
</defs>
</svg>
