<svg width="24" height="24" viewBox="0 0 24 24" fill="none" xmlns="http://www.w3.org/2000/svg">
<path d="M8 13C7.44772 13 7 13.4477 7 14C7 14.5523 7.44772 15 8 15V13ZM16 15C16.5523 15 17 14.5523 17 14C17 13.4477 16.5523 13 16 13V15ZM8 9C7.44772 9 7 9.44772 7 10C7 10.5523 7.44772 11 8 11V9ZM16 11C16.5523 11 17 10.5523 17 10C17 9.44772 16.5523 9 16 9V11ZM8 5C7.44772 5 7 5.44772 7 6C7 6.55228 7.44772 7 8 7V5ZM16 7C16.5523 7 17 6.55228 17 6C17 5.44772 16.5523 5 16 5V7ZM8 17C7.44772 17 7 17.4477 7 18C7 18.5523 7.44772 19 8 19V17ZM12 19C12.5523 19 13 18.5523 13 18C13 17.4477 12.5523 17 12 17V19ZM5.07805 21.7748L4.61708 22.6622L5.07805 21.7748ZM4.22517 20.9219L3.33776 21.3829L4.22517 20.9219ZM19.7748 20.9219L20.6622 21.3829L19.7748 20.9219ZM18.9219 21.7748L19.3829 22.6622L18.9219 21.7748ZM18.9219 2.22517L19.3829 1.33776L18.9219 2.22517ZM19.7748 3.07805L20.6622 2.61708L19.7748 3.07805ZM5.07805 2.22517L4.61708 1.33776L5.07805 2.22517ZM4.22517 3.07805L3.33776 2.61708L4.22517 3.07805ZM8 15H16V13H8V15ZM8 11H16V9H8V11ZM8 7H16V5H8V7ZM8 19H12V17H8V19ZM7.22 3H16.78V1H7.22V3ZM19 5.22V18.78H21V5.22H19ZM16.78 21H7.22V23H16.78V21ZM5 18.78V5.22H3V18.78H5ZM7.22 21C6.63372 21 6.25517 20.9992 5.96722 20.9753C5.69125 20.9524 5.58924 20.9135 5.53903 20.8874L4.61708 22.6622C5.00034 22.8613 5.39981 22.935 5.8017 22.9684C6.19162 23.0008 6.66729 23 7.22 23V21ZM3 18.78C3 19.3327 2.9992 19.8084 3.03158 20.1983C3.06495 20.6002 3.13867 20.9997 3.33776 21.3829L5.11259 20.461C5.0865 20.4108 5.04763 20.3088 5.02472 20.0328C5.0008 19.7448 5 19.3663 5 18.78H3ZM5.53903 20.8874C5.35638 20.7925 5.20746 20.6436 5.11259 20.461L3.33776 21.3829C3.62239 21.9309 4.06915 22.3776 4.61708 22.6622L5.53903 20.8874ZM19 18.78C19 19.3663 18.9992 19.7448 18.9753 20.0328C18.9524 20.3088 18.9135 20.4108 18.8874 20.461L20.6622 21.3829C20.8613 20.9997 20.935 20.6002 20.9684 20.1983C21.0008 19.8084 21 19.3327 21 18.78H19ZM16.78 23C17.3327 23 17.8084 23.0008 18.1983 22.9684C18.6002 22.935 18.9997 22.8613 19.3829 22.6622L18.461 20.8874C18.4108 20.9135 18.3088 20.9524 18.0328 20.9753C17.7448 20.9992 17.3663 21 16.78 21V23ZM18.8874 20.461C18.7925 20.6436 18.6436 20.7925 18.461 20.8874L19.3829 22.6622C19.9309 22.3776 20.3776 21.9309 20.6622 21.3829L18.8874 20.461ZM16.78 3C17.3663 3 17.7448 3.0008 18.0328 3.02472C18.3088 3.04763 18.4108 3.0865 18.461 3.11259L19.3829 1.33776C18.9997 1.13867 18.6002 1.06495 18.1983 1.03158C17.8084 0.999196 17.3327 1 16.78 1V3ZM21 5.22C21 4.66729 21.0008 4.19162 20.9684 3.8017C20.935 3.39982 20.8613 3.00034 20.6622 2.61708L18.8874 3.53903C18.9135 3.58924 18.9524 3.69125 18.9753 3.96722C18.9992 4.25517 19 4.63372 19 5.22H21ZM18.461 3.11259C18.6436 3.20746 18.7925 3.35638 18.8874 3.53903L20.6622 2.61708C20.3776 2.06915 19.9309 1.62239 19.3829 1.33776L18.461 3.11259ZM7.22 1C6.66729 1 6.19162 0.999196 5.8017 1.03158C5.39981 1.06495 5.00034 1.13867 4.61708 1.33776L5.53903 3.11259C5.58924 3.0865 5.69125 3.04763 5.96722 3.02472C6.25517 3.0008 6.63372 3 7.22 3V1ZM5 5.22C5 4.63372 5.0008 4.25517 5.02472 3.96722C5.04763 3.69125 5.0865 3.58924 5.11259 3.53903L3.33776 2.61708C3.13867 3.00034 3.06495 3.39981 3.03158 3.8017C2.9992 4.19162 3 4.66729 3 5.22H5ZM4.61708 1.33776C4.06915 1.62239 3.62239 2.06915 3.33776 2.61708L5.11259 3.53903C5.20746 3.35638 5.35638 3.20746 5.53903 3.11259L4.61708 1.33776Z" fill="black"/>
</svg>
