<svg width="24" height="24" viewBox="0 0 24 24" fill="none" xmlns="http://www.w3.org/2000/svg">
<path d="M6 3V2H5V3H6ZM7.09202 20.782L6.63802 21.673H6.63802L7.09202 20.782ZM6.21798 19.908L5.32698 20.362H5.32698L6.21798 19.908ZM16.908 3.21799L17.362 2.32698L16.908 3.21799ZM17.782 4.09202L16.891 4.54601V4.54601L17.782 4.09202ZM7 19C7 18.4477 6.55228 18 6 18C5.44771 18 5 18.4477 5 19H7ZM6 7C6.55229 7 7 6.55229 7 6C7 5.44772 6.55229 5 6 5V7ZM3.5 6L3.5 5L3.5 6ZM3 5.5H2H3ZM3 5H4H3ZM8 4C8.55228 4 9 3.55228 9 3C9 2.44772 8.55228 2 8 2V4ZM5 3L5 4H5V3ZM17 6.2V18H19V6.2H17ZM7 17.8V3H5V17.8H7ZM9 20C7.7909 20 7.71262 19.9759 7.54601 19.891L6.63802 21.673C7.32706 22.0241 7.96888 22 9 22V20ZM5 17.8C5 18.3436 4.99922 18.8114 5.03057 19.195C5.06287 19.5904 5.13418 19.9836 5.32698 20.362L7.10899 19.454C7.0838 19.4046 7.04612 19.3038 7.02392 19.0322C7.00077 18.7488 7 18.3766 7 17.8H5ZM7.54601 19.891C7.35784 19.7951 7.20486 19.6422 7.10899 19.454L5.32698 20.362C5.6146 20.9265 6.07354 21.3854 6.63802 21.673L7.54601 19.891ZM14.8 4C15.3765 4 15.7488 4.00078 16.0322 4.02393C16.3038 4.04612 16.4045 4.0838 16.454 4.10899L17.362 2.32698C16.9836 2.13419 16.5904 2.06287 16.195 2.03057C15.8114 1.99922 15.3435 2 14.8 2V4ZM19 6.2C19 5.65645 19.0008 5.18864 18.9694 4.80497C18.9371 4.40963 18.8658 4.01641 18.673 3.63803L16.891 4.54601C16.9162 4.59545 16.9539 4.69617 16.9761 4.96784C16.9992 5.25117 17 5.62345 17 6.2H19ZM16.454 4.10899C16.6421 4.20487 16.7951 4.35785 16.891 4.54601L18.673 3.63803C18.3854 3.07354 17.9265 2.6146 17.362 2.32698L16.454 4.10899ZM14.8 2H6V4H14.8V2ZM8 22H9V20H8V22ZM10 21V18.5H8V21H10ZM9.5 19H20.5V17H9.5V19ZM20 18.5V19H22V18.5H20ZM19 20H9V22H19V20ZM20 19C20 19.5523 19.5523 20 19 20V22C20.6569 22 22 20.6569 22 19H20ZM20.5 19C20.2239 19 20 18.7761 20 18.5H22C22 17.6716 21.3284 17 20.5 17V19ZM10 18.5C10 18.7761 9.77614 19 9.5 19V17C8.67157 17 8 17.6716 8 18.5H10ZM5 19C5 20.6569 6.34314 22 8 22V20C7.44771 20 7 19.5523 7 19H5ZM6 5L3.5 5L3.5 7H6V5ZM4 5.5V5L2 5L2 5.5H4ZM8 2L5 2L5 4L8 4V2ZM4 5C4 4.44772 4.44772 4 5 4L5 2C3.34315 2 2 3.34315 2 5L4 5ZM3.5 5C3.77614 5 4 5.22386 4 5.5H2C2 6.32843 2.67157 7 3.5 7L3.5 5Z" fill="black"/>
</svg>
