<svg width="16" height="16" viewBox="0 0 16 16" fill="none" xmlns="http://www.w3.org/2000/svg">
<path d="M2.30402 4.82664L2.81851 5.13534L2.30402 4.82664ZM3.37855 3.03574L3.89305 3.34444L3.89305 3.34444L3.37855 3.03574ZM12.6214 3.03574L12.1069 3.34444V3.34444L12.6214 3.03574ZM13.696 4.82664L13.1815 5.13534L13.696 4.82664ZM11.6507 2.06319L11.4682 2.63476L11.4682 2.63476L11.6507 2.06319ZM12.1255 2.33204L12.5217 1.88145L12.5217 1.88145L12.1255 2.33204ZM3.87447 2.33204L4.27068 2.78262L4.27068 2.78262L3.87447 2.33204ZM4.3493 2.06319L4.16677 1.49163H4.16677L4.3493 2.06319ZM13.9825 5.48742L13.3904 5.58427V5.58428L13.9825 5.48742ZM13.9057 5.2102L14.4633 4.9886L14.4633 4.9886L13.9057 5.2102ZM13.272 13.8547L12.9996 13.3201H12.9996L13.272 13.8547ZM13.8547 13.272L13.3201 12.9996V12.9996L13.8547 13.272ZM2.14532 13.272L1.61072 13.5444L1.61072 13.5444L2.14532 13.272ZM2.72801 13.8547L3.00041 13.3201L3.00041 13.3201L2.72801 13.8547ZM2.01748 5.48742L1.42535 5.39057L2.01748 5.48742ZM2.09427 5.2102L1.53669 4.9886L1.53669 4.9886L2.09427 5.2102ZM2.66667 4.73333C2.3353 4.73333 2.06667 5.00196 2.06667 5.33333C2.06667 5.6647 2.3353 5.93333 2.66667 5.93333V4.73333ZM13.3333 5.93333C13.6647 5.93333 13.9333 5.6647 13.9333 5.33333C13.9333 5.00196 13.6647 4.73333 13.3333 4.73333V5.93333ZM6.66667 7.4C6.3353 7.4 6.06667 7.66863 6.06667 8C6.06667 8.33137 6.3353 8.6 6.66667 8.6V7.4ZM9.33333 8.6C9.6647 8.6 9.93333 8.33137 9.93333 8C9.93333 7.66863 9.6647 7.4 9.33333 7.4V8.6ZM7.4 5.33333C7.4 5.6647 7.66863 5.93333 8 5.93333C8.33137 5.93333 8.6 5.6647 8.6 5.33333H7.4ZM8.6 2C8.6 1.66863 8.33137 1.4 8 1.4C7.66863 1.4 7.4 1.66863 7.4 2H8.6ZM1.4 5.92423V11.8667H2.6V5.92423H1.4ZM4.13333 14.6H11.8667V13.4H4.13333V14.6ZM14.6 11.8667V5.92423H13.4V11.8667H14.6ZM2.81851 5.13534L3.89305 3.34444L2.86406 2.72705L1.78952 4.51794L2.81851 5.13534ZM5.20787 2.6H10.7921V1.4H5.20787V2.6ZM12.1069 3.34444L13.1815 5.13534L14.2105 4.51794L13.1359 2.72704L12.1069 3.34444ZM10.7921 2.6C11.2722 2.6 11.3804 2.60674 11.4682 2.63476L11.8332 1.49163C11.5252 1.39326 11.1929 1.4 10.7921 1.4V2.6ZM13.1359 2.72705C12.9297 2.38335 12.7646 2.09499 12.5217 1.88145L11.7293 2.78262C11.7985 2.84343 11.8599 2.93275 12.1069 3.34444L13.1359 2.72705ZM11.4682 2.63476C11.5645 2.66552 11.6534 2.71586 11.7293 2.78262L12.5217 1.88145C12.3216 1.70544 12.0871 1.57272 11.8332 1.49163L11.4682 2.63476ZM3.89305 3.34444C4.14006 2.93276 4.20152 2.84343 4.27068 2.78262L3.47827 1.88145C3.23543 2.09499 3.07027 2.38335 2.86406 2.72705L3.89305 3.34444ZM5.20787 1.4C4.80706 1.4 4.47482 1.39326 4.16677 1.49163L4.53183 2.63476C4.61956 2.60674 4.72777 2.6 5.20787 2.6V1.4ZM4.27068 2.78262C4.3466 2.71586 4.43552 2.66552 4.53183 2.63476L4.16677 1.49163C3.91286 1.57272 3.67845 1.70544 3.47827 1.88145L4.27068 2.78262ZM14.6 5.92423C14.6 5.72315 14.6018 5.55662 14.5746 5.39057L13.3904 5.58428C13.3982 5.63203 13.4 5.68544 13.4 5.92423H14.6ZM13.1815 5.13534C13.3043 5.3401 13.3303 5.38683 13.3482 5.4318L14.4633 4.9886C14.4012 4.83224 14.3139 4.69038 14.2105 4.51794L13.1815 5.13534ZM14.5746 5.39057C14.5521 5.25296 14.5148 5.11818 14.4633 4.9886L13.3481 5.43179C13.3677 5.48095 13.3818 5.53207 13.3904 5.58427L14.5746 5.39057ZM11.8667 14.6C12.2301 14.6 12.5388 14.6005 12.7913 14.5798C13.0507 14.5586 13.3031 14.5122 13.5444 14.3893L12.9996 13.3201C12.9557 13.3425 12.8788 13.3687 12.6935 13.3838C12.5013 13.3995 12.2499 13.4 11.8667 13.4V14.6ZM13.4 11.8667C13.4 12.2499 13.3995 12.5013 13.3838 12.6935C13.3687 12.8788 13.3425 12.9557 13.3201 12.9996L14.3893 13.5444C14.5122 13.3031 14.5586 13.0507 14.5798 12.7913C14.6005 12.5388 14.6 12.2301 14.6 11.8667H13.4ZM13.5444 14.3893C13.9082 14.2039 14.2039 13.9082 14.3893 13.5444L13.3201 12.9996C13.2498 13.1376 13.1376 13.2498 12.9996 13.3201L13.5444 14.3893ZM1.4 11.8667C1.4 12.2301 1.39953 12.5388 1.42016 12.7913C1.44136 13.0507 1.48778 13.3031 1.61072 13.5444L2.67993 12.9996C2.65755 12.9557 2.63131 12.8788 2.61617 12.6935C2.60047 12.5013 2.6 12.2499 2.6 11.8667H1.4ZM4.13333 13.4C3.75006 13.4 3.4987 13.3995 3.30646 13.3838C3.12123 13.3687 3.04433 13.3425 3.00041 13.3201L2.45562 14.3893C2.69691 14.5122 2.9493 14.5586 3.20874 14.5798C3.46118 14.6005 3.76987 14.6 4.13333 14.6V13.4ZM1.61072 13.5444C1.79608 13.9082 2.09184 14.2039 2.45562 14.3893L3.00041 13.3201C2.86242 13.2498 2.75024 13.1376 2.67993 12.9996L1.61072 13.5444ZM2.6 5.92423C2.6 5.68544 2.60181 5.63203 2.60962 5.58427L1.42535 5.39057C1.39819 5.55662 1.4 5.72315 1.4 5.92423H2.6ZM1.78952 4.51794C1.68606 4.69037 1.59883 4.83224 1.53669 4.9886L2.65185 5.4318C2.66972 5.38683 2.69565 5.3401 2.81851 5.13534L1.78952 4.51794ZM2.60962 5.58427C2.61815 5.53207 2.63231 5.48095 2.65185 5.4318L1.53669 4.9886C1.48519 5.11818 1.44786 5.25296 1.42535 5.39057L2.60962 5.58427ZM2.66667 5.93333H13.3333V4.73333H2.66667V5.93333ZM6.66667 8.6H9.33333V7.4H6.66667V8.6ZM8.6 5.33333V2H7.4V5.33333H8.6Z" fill="#000536"/>
</svg>
