<svg width="24" height="24" viewBox="0 0 24 24" fill="none" xmlns="http://www.w3.org/2000/svg">
<path d="M4.59999 14C4.59999 13.6687 4.33136 13.4 3.99999 13.4C3.66862 13.4 3.39999 13.6687 3.39999 14H4.59999ZM5.10557 18.5528L4.83724 19.0895L5.10557 18.5528ZM10.9967 21.4984L11.2651 20.9618H11.2651L10.9967 21.4984ZM12.9512 21.4055L12.6721 20.8744L12.6522 20.8848L12.6332 20.8967L12.9512 21.4055ZM19.06 18.196L19.3391 18.7271L19.3589 18.7167L19.378 18.7048L19.06 18.196ZM20.6 13.5C20.6 13.1687 20.3314 12.9 20 12.9C19.6686 12.9 19.4 13.1687 19.4 13.5H20.6ZM12 13L12.4243 12.5758L12 12.1515L11.5757 12.5758L12 13ZM12.2236 12.8882L12.4919 13.4249H12.4919L12.2236 12.8882ZM19.8211 9.08947L19.5528 8.55282L19.8211 9.08947ZM19.8211 8.91059L19.5528 9.44725L19.8211 8.91059ZM12.2236 5.11184L12.4919 4.57518L12.4919 4.57518L12.2236 5.11184ZM11.7764 5.11184L11.5081 4.57518L11.7764 5.11184ZM4.17888 8.91059L4.44721 9.44725H4.44721L4.17888 8.91059ZM4.17888 9.08947L4.44721 8.55282H4.44721L4.17888 9.08947ZM11.7764 12.8882L12.0447 12.3516H12.0447L11.7764 12.8882ZM15.3269 15.8257L15.6092 16.3551L15.6092 16.3551L15.3269 15.8257ZM21.9578 12.2892L21.6754 11.7598V11.7598L21.9578 12.2892ZM22.1066 11.5279L21.6457 11.9121L21.6457 11.9121L22.1066 11.5279ZM20 9.00003L19.5757 8.57577L19.1883 8.96321L19.5391 9.38414L20 9.00003ZM8.67311 15.8257L8.39076 16.3551L8.39076 16.3551L8.67311 15.8257ZM2.04221 12.2892L2.32457 11.7598L2.32457 11.7598L2.04221 12.2892ZM1.8934 11.5279L2.35433 11.9121L2.35433 11.9121L1.8934 11.5279ZM3.99999 9.00003L4.46093 9.38414L4.8117 8.96321L4.42426 8.57577L3.99999 9.00003ZM14.7452 2.25486L14.3209 1.83059V1.83059L14.7452 2.25486ZM15.3223 2.1612L15.5907 1.62454V1.62454L15.3223 2.1612ZM22.3795 5.68979L22.1112 6.22645L22.3795 5.68979ZM22.5095 6.49056L22.0852 6.0663V6.0663L22.5095 6.49056ZM9.25482 2.25486L9.67909 1.83059V1.83059L9.25482 2.25486ZM8.67766 2.1612L8.40933 1.62454V1.62454L8.67766 2.1612ZM1.62047 5.68979L1.35214 5.15314L1.62047 5.68979ZM1.49052 6.49056L1.91479 6.0663L1.49052 6.49056ZM12.3535 4.64648L12.7778 5.07074L12.3535 4.64648ZM11.6464 4.64648L11.2222 5.07074L11.6464 4.64648ZM3.39999 14V16.764H4.59999V14H3.39999ZM4.83724 19.0895L10.7284 22.0351L11.2651 20.9618L5.3739 18.0162L4.83724 19.0895ZM13.2302 21.9367L19.3391 18.7271L18.7809 17.6648L12.6721 20.8744L13.2302 21.9367ZM20.6 16.5V13.5H19.4V16.5H20.6ZM19.378 18.7048C20.1382 18.2297 20.6 17.3965 20.6 16.5H19.4C19.4 16.9827 19.1513 17.4314 18.742 17.6872L19.378 18.7048ZM10.7284 22.0351C11.5385 22.4401 12.5011 22.3944 13.2692 21.9143L12.6332 20.8967C12.2196 21.1552 11.7013 21.1799 11.2651 20.9618L10.7284 22.0351ZM3.39999 16.764C3.39999 17.7488 3.9564 18.6491 4.83724 19.0895L5.3739 18.0162C4.8996 17.779 4.59999 17.2942 4.59999 16.764H3.39999ZM12.6 22V13H11.4V22H12.6ZM12.4919 13.4249L20.0894 9.62613L19.5528 8.55282L11.9553 12.3516L12.4919 13.4249ZM20.0894 8.37393L12.4919 4.57518L11.9553 5.64849L19.5528 9.44725L20.0894 8.37393ZM11.5081 4.57518L3.91055 8.37393L4.44721 9.44725L12.0447 5.64849L11.5081 4.57518ZM3.91055 9.62613L11.5081 13.4249L12.0447 12.3516L4.44721 8.55282L3.91055 9.62613ZM3.91055 8.37393C3.39461 8.6319 3.39462 9.36817 3.91055 9.62613L4.44721 8.55282C4.81573 8.73708 4.81574 9.26298 4.44721 9.44725L3.91055 8.37393ZM12.4919 4.57518C12.1822 4.42034 11.8177 4.42034 11.5081 4.57518L12.0447 5.64849C12.0166 5.66257 11.9834 5.66257 11.9553 5.64849L12.4919 4.57518ZM20.0894 9.62613C20.6054 9.36816 20.6054 8.6319 20.0894 8.37393L19.5528 9.44725C19.1843 9.26299 19.1843 8.73708 19.5528 8.55282L20.0894 9.62613ZM11.9553 12.3516C11.9834 12.3375 12.0166 12.3375 12.0447 12.3516L11.5081 13.4249C11.8177 13.5797 12.1822 13.5797 12.4919 13.4249L11.9553 12.3516ZM11.5757 13.4243L14.3138 16.1623L15.1623 15.3138L12.4243 12.5758L11.5757 13.4243ZM15.6092 16.3551L22.2401 12.8186L21.6754 11.7598L15.0445 15.2963L15.6092 16.3551ZM22.5675 11.1438L20.4609 8.61592L19.5391 9.38414L21.6457 11.9121L22.5675 11.1438ZM22.2401 12.8186C22.8555 12.4904 23.014 11.6796 22.5675 11.1438L21.6457 11.9121C21.6051 11.8633 21.6195 11.7896 21.6754 11.7598L22.2401 12.8186ZM14.3138 16.1623C14.6561 16.5047 15.182 16.5829 15.6092 16.3551L15.0445 15.2963C15.0834 15.2756 15.1312 15.2827 15.1623 15.3138L14.3138 16.1623ZM11.5757 12.5758L8.83769 15.3138L9.68622 16.1623L12.4243 13.4243L11.5757 12.5758ZM8.95546 15.2963L2.32457 11.7598L1.75986 12.8186L8.39076 16.3551L8.95546 15.2963ZM2.35433 11.9121L4.46093 9.38414L3.53906 8.61592L1.43247 11.1438L2.35433 11.9121ZM2.32457 11.7598C2.38051 11.7896 2.39492 11.8633 2.35433 11.9121L1.43247 11.1438C0.985956 11.6796 1.14445 12.4904 1.75986 12.8186L2.32457 11.7598ZM8.83769 15.3138C8.86881 15.2827 8.91663 15.2756 8.95546 15.2963L8.39076 16.3551C8.81795 16.5829 9.34388 16.5047 9.68622 16.1623L8.83769 15.3138ZM12.7778 5.07074L15.1694 2.67912L14.3209 1.83059L11.9293 4.22221L12.7778 5.07074ZM15.054 2.69785L22.1112 6.22645L22.6478 5.15314L15.5907 1.62454L15.054 2.69785ZM22.0852 6.0663L19.5757 8.57577L20.4243 9.4243L22.9337 6.91482L22.0852 6.0663ZM22.1112 6.22645C22.0501 6.19592 22.0369 6.11456 22.0852 6.0663L22.9337 6.91482C23.4646 6.38392 23.3194 5.48891 22.6478 5.15314L22.1112 6.22645ZM15.1694 2.67912C15.139 2.70956 15.0925 2.7171 15.054 2.69785L15.5907 1.62454C15.1672 1.4128 14.6557 1.4958 14.3209 1.83059L15.1694 2.67912ZM12.0707 4.22221L9.67909 1.83059L8.83056 2.67912L11.2222 5.07074L12.0707 4.22221ZM8.40933 1.62454L1.35214 5.15314L1.8888 6.22645L8.94599 2.69785L8.40933 1.62454ZM1.06626 6.91482L3.57573 9.4243L4.42426 8.57577L1.91479 6.0663L1.06626 6.91482ZM1.35214 5.15314C0.680594 5.48891 0.535354 6.38392 1.06626 6.91482L1.91479 6.0663C1.96305 6.11456 1.94985 6.19593 1.8888 6.22645L1.35214 5.15314ZM9.67909 1.83059C9.34429 1.4958 8.83282 1.4128 8.40933 1.62454L8.94599 2.69785C8.90749 2.7171 8.86099 2.70956 8.83056 2.67912L9.67909 1.83059ZM11.9293 4.22221C11.9683 4.18316 12.0317 4.18316 12.0707 4.22221L11.2222 5.07074C11.6518 5.50032 12.3482 5.50032 12.7778 5.07074L11.9293 4.22221Z" fill="url(#paint0_linear_9661_54363)"/>
<defs>
<linearGradient id="paint0_linear_9661_54363" x1="-10.7772" y1="-8.95632" x2="20.45" y2="23.0344" gradientUnits="userSpaceOnUse">
<stop stop-color="#299FFF"/>
<stop offset="1" stop-color="#0202A8"/>
</linearGradient>
</defs>
</svg>
