<svg width="16" height="16" viewBox="0 0 16 16" fill="none" xmlns="http://www.w3.org/2000/svg">
<path d="M2.96662 11.5516L3.53583 11.7413H3.53583L2.96662 11.5516ZM3.51511 9.90611L2.9459 9.71637L2.9459 9.71637L3.51511 9.90611ZM4.08108 8.99037L4.50534 9.41463L4.50534 9.41463L4.08108 8.99037ZM9.54696 3.52448L9.1227 3.10021L9.1227 3.10021L9.54696 3.52448ZM12.4754 6.45296L12.8997 6.87722L12.4754 6.45296ZM7.00955 11.9188L6.58529 11.4946H6.58529L7.00955 11.9188ZM6.09381 12.4848L6.28355 13.054H6.28355L6.09381 12.4848ZM4.44833 13.0333L4.63806 13.6025H4.63806L4.44833 13.0333ZM6.70935 12.199L6.34801 11.7201L6.34801 11.7201L6.70935 12.199ZM6.47868 12.3416L6.21186 11.8042L6.47868 12.3416ZM13.1809 4.33857L12.6433 4.60498V4.60498L13.1809 4.33857ZM13.1809 5.63886L12.6433 5.37245V5.37245L13.1809 5.63886ZM10.3611 2.819L10.6275 3.35661L10.6275 3.35661L10.3611 2.819ZM11.6613 2.819L11.3949 3.35661L11.3949 3.35661L11.6613 2.819ZM3.65831 9.52123L4.19572 9.78806L4.19572 9.78806L3.65831 9.52123ZM3.80087 9.29057L3.32188 8.92922L3.32188 8.92922L3.80087 9.29057ZM2.69376 12.8625L2.12862 13.064L2.69376 12.8625ZM3.13745 13.3062L2.93592 13.8713H2.93592L3.13745 13.3062ZM9.2391 3.83236C9.00479 3.59804 8.62489 3.59804 8.39057 3.83236C8.15626 4.06667 8.15626 4.44657 8.39057 4.68089L9.2391 3.83236ZM11.3191 7.60936C11.5534 7.84368 11.9333 7.84368 12.1676 7.60936C12.4019 7.37505 12.4019 6.99515 12.1676 6.76084L11.3191 7.60936ZM3.53583 11.7413L4.08432 10.0958L2.9459 9.71637L2.39741 11.3619L3.53583 11.7413ZM4.50534 9.41463L9.97123 3.94874L9.1227 3.10021L3.65681 8.5661L4.50534 9.41463ZM12.0512 6.02869L6.58529 11.4946L7.43382 12.3431L12.8997 6.87722L12.0512 6.02869ZM5.90407 11.9156L4.25859 12.4641L4.63806 13.6025L6.28355 13.054L5.90407 11.9156ZM6.58529 11.4946C6.42812 11.6518 6.38844 11.6896 6.34801 11.7201L7.0707 12.678C7.19312 12.5857 7.29929 12.4776 7.43382 12.3431L6.58529 11.4946ZM6.28355 13.054C6.46403 12.9939 6.60815 12.9472 6.74551 12.879L6.21186 11.8042C6.1665 11.8267 6.11494 11.8453 5.90407 11.9156L6.28355 13.054ZM6.34801 11.7201C6.30533 11.7523 6.25975 11.7804 6.21186 11.8042L6.74551 12.879C6.85988 12.8222 6.96875 12.7549 7.0707 12.678L6.34801 11.7201ZM12.0512 3.94874C12.4846 4.38219 12.5914 4.50014 12.6433 4.60498L13.7185 4.07216C13.5571 3.74638 13.2646 3.46515 12.8997 3.10022L12.0512 3.94874ZM12.8997 6.87722C13.2646 6.51229 13.5571 6.23105 13.7185 5.90527L12.6433 5.37245C12.5914 5.4773 12.4846 5.59525 12.0512 6.02869L12.8997 6.87722ZM12.6433 4.60498C12.7631 4.84678 12.7631 5.13066 12.6433 5.37245L13.7185 5.90527C14.0047 5.32775 14.0047 4.64969 13.7185 4.07216L12.6433 4.60498ZM9.97123 3.94874C10.4047 3.5153 10.5226 3.40857 10.6275 3.35661L10.0946 2.28139C9.76887 2.44283 9.48763 2.73529 9.1227 3.10021L9.97123 3.94874ZM12.8997 3.10022C12.5348 2.73528 12.2535 2.44283 11.9278 2.28139L11.3949 3.35661C11.4998 3.40857 11.6177 3.5153 12.0512 3.94874L12.8997 3.10022ZM10.6275 3.35661C10.8693 3.23679 11.1531 3.23679 11.3949 3.35661L11.9278 2.28139C11.3502 1.9952 10.6722 1.9952 10.0946 2.28139L10.6275 3.35661ZM4.08432 10.0958C4.15461 9.88497 4.1732 9.83342 4.19572 9.78806L3.12091 9.25441C3.05271 9.39177 3.00607 9.53589 2.9459 9.71637L4.08432 10.0958ZM3.65681 8.5661C3.52229 8.70062 3.41424 8.8068 3.32188 8.92922L4.27986 9.65191C4.31036 9.61148 4.34817 9.5718 4.50534 9.41463L3.65681 8.5661ZM4.19572 9.78806C4.2195 9.74017 4.24766 9.69459 4.27986 9.65191L3.32188 8.92922C3.24498 9.03117 3.1777 9.14003 3.12091 9.25441L4.19572 9.78806ZM2.39741 11.3619C2.28197 11.7082 2.18164 12.0073 2.12488 12.2488C2.0702 12.4815 2.02535 12.7744 2.12862 13.064L3.25891 12.6609C3.27736 12.7127 3.24971 12.7078 3.29306 12.5233C3.33431 12.3478 3.41282 12.1103 3.53583 11.7413L2.39741 11.3619ZM4.25859 12.4641C3.88957 12.5871 3.65213 12.6656 3.47657 12.7069C3.29211 12.7502 3.28722 12.7226 3.33897 12.741L2.93592 13.8713C3.22553 13.9746 3.5184 13.9297 3.75108 13.875C3.99266 13.8183 4.29173 13.718 4.63806 13.6025L4.25859 12.4641ZM2.12862 13.064C2.26292 13.4406 2.5593 13.737 2.93592 13.8713L3.33897 12.741C3.30162 12.7277 3.27223 12.6983 3.25891 12.6609L2.12862 13.064ZM8.39057 4.68089L11.3191 7.60936L12.1676 6.76084L9.2391 3.83236L8.39057 4.68089Z" fill="#000536"/>
</svg>
