<svg width="12" height="12" viewBox="0 0 12 12" fill="none" xmlns="http://www.w3.org/2000/svg">
<path d="M0.966864 9.55135L1.53607 9.74109H1.53607L0.966864 9.55135ZM1.51536 7.90586L0.946149 7.71613L0.946149 7.71613L1.51536 7.90586ZM2.08132 6.99012L2.50558 7.41439L2.50558 7.41438L2.08132 6.99012ZM7.54721 1.52423L7.12294 1.09997L7.12294 1.09997L7.54721 1.52423ZM10.4757 4.45271L10.8999 4.87698L10.4757 4.45271ZM5.0098 9.9186L4.58553 9.49433H4.58553L5.0098 9.9186ZM4.09405 10.4846L4.28379 11.0538H4.28379L4.09405 10.4846ZM2.44857 11.0331L2.63831 11.6023H2.63831L2.44857 11.0331ZM4.7096 10.1988L4.34825 9.71981L4.34825 9.71981L4.7096 10.1988ZM4.47893 10.3414L4.2121 9.80395L4.47893 10.3414ZM11.1812 2.33833L10.6435 2.60474V2.60474L11.1812 2.33833ZM11.1812 3.63862L10.6435 3.37221V3.37221L11.1812 3.63862ZM8.3613 0.818757L8.62771 1.35637L8.62771 1.35637L8.3613 0.818757ZM9.66159 0.818757L9.39518 1.35637L9.39518 1.35637L9.66159 0.818757ZM1.65856 7.52099L2.19596 7.78781L2.19596 7.78781L1.65856 7.52099ZM1.80112 7.29032L1.32213 6.92898L1.32213 6.92898L1.80112 7.29032ZM0.694007 10.8622L0.128864 11.0638L0.694007 10.8622ZM1.13769 11.3059L0.936161 11.8711H0.936163L1.13769 11.3059ZM7.23935 1.83211C7.00503 1.5978 6.62513 1.5978 6.39082 1.83211C6.1565 2.06643 6.1565 2.44633 6.39082 2.68064L7.23935 1.83211ZM9.31929 5.60912C9.55361 5.84343 9.93351 5.84343 10.1678 5.60912C10.4021 5.37481 10.4021 4.99491 10.1678 4.76059L9.31929 5.60912ZM1.53607 9.74109L2.08457 8.0956L0.946149 7.71613L0.397654 9.36161L1.53607 9.74109ZM2.50558 7.41438L7.97147 1.9485L7.12294 1.09997L1.65706 6.56586L2.50558 7.41438ZM10.0514 4.02845L4.58553 9.49433L5.43406 10.3429L10.8999 4.87698L10.0514 4.02845ZM3.90432 9.91535L2.25883 10.4638L2.63831 11.6023L4.28379 11.0538L3.90432 9.91535ZM4.58553 9.49433C4.42836 9.65151 4.38868 9.68931 4.34825 9.71981L5.07094 10.6778C5.19336 10.5854 5.29954 10.4774 5.43406 10.3429L4.58553 9.49433ZM4.28379 11.0538C4.46427 10.9936 4.6084 10.947 4.74575 10.8788L4.2121 9.80395C4.16674 9.82648 4.11519 9.84506 3.90432 9.91535L4.28379 11.0538ZM4.34825 9.71981C4.30557 9.75201 4.25999 9.78018 4.2121 9.80395L4.74575 10.8788C4.86013 10.822 4.96899 10.7547 5.07094 10.6778L4.34825 9.71981ZM10.0514 1.9485C10.4849 2.38194 10.5916 2.49989 10.6435 2.60474L11.7188 2.07192C11.5573 1.74614 11.2649 1.4649 10.8999 1.09997L10.0514 1.9485ZM10.8999 4.87698C11.2649 4.51204 11.5573 4.23081 11.7188 3.90503L10.6435 3.37221C10.5916 3.47705 10.4849 3.59501 10.0514 4.02845L10.8999 4.87698ZM10.6435 2.60474C10.7634 2.84653 10.7634 3.13042 10.6435 3.37221L11.7188 3.90503C12.005 3.3275 12.005 2.64945 11.7188 2.07192L10.6435 2.60474ZM7.97147 1.9485C8.40491 1.51506 8.52287 1.40832 8.62771 1.35637L8.09489 0.281145C7.76911 0.442583 7.48787 0.735041 7.12294 1.09997L7.97147 1.9485ZM10.8999 1.09997C10.535 0.735038 10.2538 0.442583 9.928 0.281145L9.39518 1.35637C9.50002 1.40832 9.61798 1.51506 10.0514 1.9485L10.8999 1.09997ZM8.62771 1.35637C8.8695 1.23655 9.15339 1.23655 9.39518 1.35637L9.928 0.281146C9.35047 -0.00504333 8.67242 -0.00504333 8.09489 0.281146L8.62771 1.35637ZM2.08457 8.0956C2.15486 7.88473 2.17344 7.83317 2.19596 7.78781L1.12115 7.25417C1.05295 7.39152 1.00631 7.53564 0.946149 7.71613L2.08457 8.0956ZM1.65706 6.56586C1.52253 6.70038 1.41448 6.80655 1.32213 6.92898L2.28011 7.65167C2.31061 7.61124 2.34841 7.57156 2.50558 7.41439L1.65706 6.56586ZM2.19596 7.78781C2.21974 7.73993 2.24791 7.69435 2.28011 7.65167L1.32213 6.92898C1.24522 7.03092 1.17794 7.13979 1.12115 7.25417L2.19596 7.78781ZM0.397654 9.36161C0.282211 9.70794 0.181887 10.007 0.125119 10.2486C0.0704436 10.4813 0.0255903 10.7741 0.128864 11.0638L1.25915 10.6607C1.27761 10.7125 1.24996 10.7076 1.2933 10.5231C1.33455 10.3475 1.41307 10.1101 1.53607 9.74109L0.397654 9.36161ZM2.25883 10.4638C1.88981 10.5869 1.65237 10.6654 1.47682 10.7066C1.29236 10.75 1.28746 10.7223 1.33922 10.7408L0.936163 11.8711C1.22577 11.9743 1.51864 11.9295 1.75132 11.8748C1.9929 11.818 2.29198 11.7177 2.63831 11.6023L2.25883 10.4638ZM0.128864 11.0638C0.263166 11.4404 0.559541 11.7368 0.936161 11.8711L1.33922 10.7408C1.30186 10.7274 1.27247 10.6981 1.25915 10.6607L0.128864 11.0638ZM6.39082 2.68064L9.31929 5.60912L10.1678 4.76059L7.23935 1.83211L6.39082 2.68064Z" fill="url(#paint0_linear_7006_57268)"/>
<defs>
<linearGradient id="paint0_linear_7006_57268" x1="-5.39992" y1="-5.26683" x2="11.3334" y2="10.7332" gradientUnits="userSpaceOnUse">
<stop stop-color="#299FFF"/>
<stop offset="1" stop-color="#0202A8"/>
</linearGradient>
</defs>
</svg>
