<svg width="16" height="16" viewBox="0 0 16 16" fill="none" xmlns="http://www.w3.org/2000/svg">
<path d="M8.00137 2.6969L2.22012 8.47346H3.72012V13.5625H6.1248V10C6.1248 9.65471 6.40449 9.37502 6.7498 9.37502H9.2498C9.59512 9.37502 9.8748 9.65471 9.8748 10V13.5625H12.2795V8.47346H13.7811L8.3623 3.05784L8.00137 2.6969ZM14.7904 9.30471C14.6967 9.39846 14.5857 9.47346 14.4654 9.5219C14.5857 9.4719 14.6967 9.39846 14.7904 9.30471ZM0.931055 8.76252C1.00918 9.23596 1.42168 9.59846 1.91699 9.59846H1.93105C1.43262 9.59846 1.01074 9.23909 0.931055 8.76252ZM0.916992 8.59846V8.56877V8.59846ZM0.918555 8.55784C0.920117 8.5094 0.926367 8.46252 0.93418 8.41565C0.924805 8.46096 0.920117 8.5094 0.918555 8.55784Z" fill="#EBECF0"/>
<path d="M14.8596 7.96879C14.8596 7.96723 14.858 7.96723 14.858 7.96566L14.8299 7.93285C14.8283 7.93129 14.8268 7.92816 14.8236 7.9266C14.8127 7.9141 14.8002 7.9016 14.7893 7.8891L8.75176 1.85629L8.34707 1.4516C8.25486 1.36 8.13017 1.30859 8.0002 1.30859C7.87022 1.30859 7.74553 1.36 7.65332 1.4516L1.21113 7.89066C1.09475 8.00643 1.00886 8.14923 0.961133 8.30629L0.951758 8.3391L0.94707 8.35629L0.942383 8.37504C0.939258 8.38598 0.937695 8.39691 0.936133 8.40785C0.936133 8.40941 0.936133 8.41254 0.93457 8.4141C0.925195 8.46098 0.920508 8.50785 0.918945 8.55629V8.60785C0.918945 8.61566 0.918945 8.62348 0.920508 8.63129C0.920508 8.6391 0.920508 8.64535 0.92207 8.65316C0.92207 8.66098 0.923633 8.66879 0.923633 8.6766C0.923633 8.68598 0.925195 8.69535 0.926758 8.70473C0.926758 8.70941 0.92832 8.7141 0.92832 8.71879L0.933008 8.75785V8.75941C1.0127 9.23598 1.43613 9.59535 1.93301 9.59535H2.59707V14.6875H13.4049V9.59848H14.083C14.2174 9.59848 14.3471 9.57191 14.4658 9.52191C14.5846 9.47191 14.6955 9.39848 14.7908 9.30473C14.8839 9.21193 14.9577 9.10159 15.0078 8.98009C15.058 8.8586 15.0835 8.72836 15.083 8.59691C15.083 8.36723 15.0049 8.14691 14.8596 7.96879ZM8.8752 13.5625H7.1252V10.375H8.8752V13.5625ZM12.2799 8.47348V13.5625H9.8752V10C9.8752 9.65473 9.59551 9.37504 9.2502 9.37504H6.7502C6.40488 9.37504 6.1252 9.65473 6.1252 10V13.5625H3.72051V8.47348H2.22051L8.00176 2.69691L8.3627 3.05785L13.7814 8.47348H12.2799Z" fill="#53565A"/>
</svg>
