<svg width="16" height="16" viewBox="0 0 16 16" fill="none" xmlns="http://www.w3.org/2000/svg">
<path d="M10.6668 6V4.66667C10.6668 3.19391 9.47289 2 8.00013 2C7.32383 2 6.70634 2.25176 6.23625 2.66667M5.46683 14H10.5335C11.2802 14 11.6536 14 11.9388 13.8547C12.1897 13.7268 12.3937 13.5229 12.5215 13.272C12.6668 12.9868 12.6668 12.6134 12.6668 11.8667V8.13333C12.6668 7.3866 12.6668 7.01323 12.5215 6.72801C12.3937 6.47713 12.1897 6.27316 11.9388 6.14532C11.6536 6 11.2802 6 10.5335 6H5.46683C4.72009 6 4.34672 6 4.06151 6.14532C3.81063 6.27316 3.60665 6.47713 3.47882 6.72801C3.3335 7.01323 3.3335 7.3866 3.3335 8.13333V11.8667C3.3335 12.6134 3.3335 12.9868 3.47882 13.272C3.60665 13.5229 3.81063 13.7268 4.06151 13.8547C4.34672 14 4.72009 14 5.46683 14Z" stroke="#000536" stroke-width="1.2" stroke-linecap="round"/>
</svg>
