<svg width="16" height="16" viewBox="0 0 16 16" fill="none" xmlns="http://www.w3.org/2000/svg">
<path d="M4.66667 14V9.33333C4.66667 8.59695 5.26362 8 6 8H10C10.7364 8 11.3333 8.59695 11.3333 9.33333V14M6.66667 10.6667H9.33333M3.33333 14H12.6667C13.403 14 14 13.403 14 12.6667V3.33333C14 2.59695 13.403 2 12.6667 2H5.88562C5.532 2 5.19286 2.14048 4.94281 2.39052L2.39052 4.94281C2.14048 5.19286 2 5.532 2 5.88562V12.6667C2 13.403 2.59695 14 3.33333 14Z" stroke="#000536" stroke-width="1.2" stroke-linecap="round"/>
</svg>
