<svg width="16" height="16" viewBox="0 0 16 16" fill="none" xmlns="http://www.w3.org/2000/svg">
<path d="M11.333 13.3332H14.6663V11.9998C14.6663 11.5842 14.5368 11.1789 14.2958 10.8403C14.0547 10.5016 13.7142 10.2465 13.3215 10.1103C12.9288 9.97418 12.5034 9.96376 12.1045 10.0805C11.7056 10.1973 11.353 10.4354 11.0957 10.7618M11.333 13.3332H4.66634M11.333 13.3332V11.9998C11.333 11.5625 11.249 11.1445 11.0957 10.7618M11.0957 10.7618C10.8481 10.1431 10.4208 9.61281 9.86901 9.23925C9.31717 8.86569 8.66606 8.66603 7.99967 8.66603C7.33329 8.66603 6.68218 8.86569 6.13034 9.23925C5.5785 9.61281 5.15125 10.1431 4.90367 10.7618M4.66634 13.3332H1.33301V11.9998C1.33304 11.5842 1.46256 11.1789 1.70358 10.8403C1.9446 10.5016 2.28513 10.2465 2.67784 10.1103C3.07055 9.97418 3.49593 9.96376 3.89483 10.0805C4.29374 10.1973 4.64636 10.4354 4.90367 10.7618M4.66634 13.3332V11.9998C4.66634 11.5625 4.75034 11.1445 4.90367 10.7618M9.99967 4.6665C9.99967 5.19694 9.78896 5.70564 9.41389 6.08072C9.03882 6.45579 8.53011 6.6665 7.99967 6.6665C7.46924 6.6665 6.96053 6.45579 6.58546 6.08072C6.21039 5.70564 5.99967 5.19694 5.99967 4.6665C5.99967 4.13607 6.21039 3.62736 6.58546 3.25229C6.96053 2.87722 7.46924 2.6665 7.99967 2.6665C8.53011 2.6665 9.03882 2.87722 9.41389 3.25229C9.78896 3.62736 9.99967 4.13607 9.99967 4.6665ZM13.9997 6.6665C13.9997 7.02013 13.8592 7.35926 13.6092 7.60931C13.3591 7.85936 13.02 7.99984 12.6663 7.99984C12.3127 7.99984 11.9736 7.85936 11.7235 7.60931C11.4735 7.35926 11.333 7.02013 11.333 6.6665C11.333 6.31288 11.4735 5.97374 11.7235 5.72369C11.9736 5.47365 12.3127 5.33317 12.6663 5.33317C13.02 5.33317 13.3591 5.47365 13.6092 5.72369C13.8592 5.97374 13.9997 6.31288 13.9997 6.6665ZM4.66634 6.6665C4.66634 7.02013 4.52587 7.35926 4.27582 7.60931C4.02577 7.85936 3.68663 7.99984 3.33301 7.99984C2.97939 7.99984 2.64025 7.85936 2.3902 7.60931C2.14015 7.35926 1.99967 7.02013 1.99967 6.6665C1.99967 6.31288 2.14015 5.97374 2.3902 5.72369C2.64025 5.47365 2.97939 5.33317 3.33301 5.33317C3.68663 5.33317 4.02577 5.47365 4.27582 5.72369C4.52587 5.97374 4.66634 6.31288 4.66634 6.6665Z" stroke="#2D2C2C" stroke-linecap="round" stroke-linejoin="round"/>
</svg>
