<svg width="20" height="20" viewBox="0 0 20 20" fill="none" xmlns="http://www.w3.org/2000/svg">
<path d="M10.0014 4.83886C11.1045 4.83886 12.0722 4.40754 12.9045 3.54486C13.7368 2.68219 14.153 1.67905 14.153 0.535453C14.153 0.409853 14.1431 0.231368 14.1233 0C13.9779 0.0198316 13.8689 0.0363579 13.7963 0.0495789C12.779 0.195011 11.884 0.694105 11.1111 1.54684C10.3383 2.3996 9.95184 3.31185 9.95184 4.2836C9.95184 4.39596 9.96834 4.58107 10.0014 4.83886ZM13.9548 20C14.7409 20 15.6095 19.4613 16.5607 18.3837C17.5119 17.3062 18.2385 16.0403 18.7405 14.586C16.8712 13.6209 15.9365 12.236 15.9365 10.4313C15.9365 8.92415 16.6928 7.63512 18.2055 6.56421C17.1552 5.24872 15.768 4.59097 14.044 4.59097C13.3174 4.59097 12.6535 4.70004 12.0524 4.91819L11.6759 5.05701L11.1706 5.25533C10.8403 5.38093 10.5397 5.44375 10.2689 5.44375C10.0575 5.44375 9.78006 5.37101 9.4366 5.22558L9.05016 5.06693L8.68357 4.91819C8.1485 4.69343 7.57382 4.58105 6.95951 4.58105C5.31472 4.58105 3.99361 5.13634 2.99616 6.24691C1.99871 7.35745 1.5 8.82168 1.5 10.6396C1.5 13.1978 2.29927 15.5611 3.89782 17.7293C5.00757 19.2431 6.02152 20 6.93968 20C7.32943 20 7.71585 19.924 8.09896 19.7719L8.58447 19.5736L8.97091 19.4348C9.51256 19.2431 10.0113 19.1472 10.4671 19.1472C10.9493 19.1472 11.5041 19.2696 12.1317 19.5141L12.4388 19.6331C13.0795 19.8777 13.5849 20 13.9548 20Z" fill="black"/>
</svg>
