<svg width="18" height="24" viewBox="0 0 18 24" fill="none" xmlns="http://www.w3.org/2000/svg">
<path d="M17.185 3.54462V24H0V0H13.6211L17.185 3.54462Z" fill="#BFBFBF"/>
<path d="M13.6211 3.54462V0L17.185 3.54462H13.6211Z" fill="#8C8C8C"/>
<path d="M7.27386 8.01499C7.27386 8.66453 6.7448 9.19072 6.09034 9.19072C5.43589 9.19072 4.9082 8.66453 4.9082 8.01499C4.9082 7.36545 5.43726 6.83789 6.09034 6.83789C6.74342 6.83789 7.27386 7.36408 7.27386 8.01499Z" fill="white"/>
<path d="M12.6875 15.1806H3.87571C3.66305 15.1806 3.5301 14.9515 3.6378 14.7703L5.77054 11.0933C5.87687 10.9106 6.1426 10.9106 6.24772 11.0933L6.75274 11.963L8.7867 8.45837C9.13093 7.86674 9.99032 7.86674 10.3347 8.45837L13.4622 13.8474C13.8064 14.439 13.3761 15.1805 12.6877 15.1805L12.6875 15.1806Z" fill="white"/>
<path d="M4.73054 20.5754C4.6359 20.5754 4.54777 20.5397 4.48593 20.4749C4.42392 20.4131 4.38477 20.3288 4.38477 20.2347C4.38477 20.0399 4.53489 19.8906 4.73071 19.8906C4.82536 19.8906 4.91022 19.9297 4.97206 19.9913C5.03407 20.0528 5.07323 20.1406 5.07323 20.2345C5.07323 20.3285 5.03407 20.4129 4.97206 20.4747C4.91022 20.5395 4.82536 20.5752 4.73071 20.5752L4.73054 20.5754Z" fill="white"/>
<path d="M6.851 19.9463C6.89017 19.9203 6.90993 19.8848 6.91302 19.8456C6.91628 19.8099 6.90649 19.7775 6.88365 19.7548C6.87386 19.745 6.8608 19.7355 6.84448 19.7225C6.80858 19.6997 6.74657 19.6673 6.63251 19.6348C6.57377 19.6188 6.50197 19.6024 6.41385 19.5861C6.05828 19.5113 5.74513 19.375 5.61784 19.1935C5.55257 19.0929 5.51994 18.9858 5.51341 18.8852C5.50689 18.7845 5.51668 18.6904 5.54279 18.6159C5.59501 18.4471 5.72538 18.3076 5.89526 18.21C6.06481 18.1128 6.27694 18.0576 6.50849 18.0576C6.70431 18.0576 6.86733 18.0901 7.00114 18.129C7.13169 18.1712 7.23939 18.2297 7.32098 18.2818C7.40257 18.3335 7.41562 18.4017 7.35344 18.4828L7.17737 18.7261C7.12842 18.8009 7.05988 18.817 6.97503 18.7683C6.85754 18.7002 6.69109 18.632 6.50832 18.632C6.39083 18.632 6.30941 18.658 6.25719 18.6872C6.20497 18.7162 6.17903 18.7553 6.16907 18.7813C6.14296 18.8462 6.17233 18.8917 6.23108 18.9274C6.28982 18.9631 6.37777 18.9858 6.48221 19.0085C6.99118 19.109 7.26532 19.2421 7.38591 19.3977C7.51319 19.5634 7.54566 19.7582 7.50976 19.9623C7.48691 20.1181 7.40532 20.2738 7.2521 20.3906C7.0987 20.5109 6.87042 20.5888 6.55384 20.5888H6.4951C6.47225 20.5888 6.45266 20.5888 6.42982 20.5854C6.17868 20.5724 5.88822 20.5206 5.56185 20.3356C5.47373 20.2868 5.46085 20.209 5.52286 20.1311L5.74136 19.8585C5.79684 19.784 5.86537 19.7742 5.94696 19.8228C6.1165 19.9234 6.24705 19.9688 6.43291 19.9915C6.61894 20.0143 6.78213 19.9948 6.85049 19.9461L6.851 19.9463Z" fill="white"/>
<path d="M9.0649 19.4862L9.49879 18.237C9.52816 18.1591 9.58365 18.1201 9.66833 18.1201H10.0174C10.1251 18.1201 10.1708 18.1849 10.1349 18.2855L9.40071 20.4077C9.37134 20.4856 9.31259 20.5245 9.23117 20.5245H8.90154C8.81668 20.5245 8.76119 20.4858 8.73199 20.4077L7.99458 18.2855C7.9585 18.1849 8.00419 18.1201 8.11207 18.1201H8.46111C8.5427 18.1201 8.60145 18.1589 8.63065 18.237L9.06455 19.4862H9.0649Z" fill="white"/>
<path d="M11.7093 20.5794C11.3603 20.5794 11.0437 20.4364 10.8154 20.2095C10.587 19.9823 10.4434 19.6709 10.4434 19.3236C10.4434 18.9762 10.587 18.6583 10.8154 18.4313C11.0437 18.204 11.3603 18.0645 11.7093 18.0645C12.0584 18.0645 12.3617 18.191 12.5967 18.4246C12.6652 18.4991 12.6554 18.5707 12.5804 18.6323L12.3226 18.8334C12.2477 18.8953 12.1922 18.8855 12.1171 18.8238C11.9996 18.7263 11.8625 18.6778 11.7093 18.6778C11.5298 18.6778 11.3668 18.7492 11.2491 18.8659C11.1316 18.9827 11.06 19.1449 11.06 19.3236C11.06 19.5023 11.1318 19.6642 11.2491 19.7876C11.3666 19.9109 11.5298 19.9921 11.7093 19.9921C11.8497 19.9921 11.9539 19.9627 12.0323 19.9239C12.1073 19.8882 12.153 19.8427 12.1791 19.8135V19.6579H11.7779C11.68 19.6579 11.631 19.6092 11.631 19.5118V19.3107C11.631 19.2132 11.68 19.1647 11.7779 19.1647H12.6489C12.7468 19.1647 12.7956 19.2134 12.7956 19.3107V19.8981C12.7956 19.9663 12.7826 20.018 12.7564 20.0604C12.5476 20.3751 12.2051 20.5796 11.7092 20.5796L11.7093 20.5794Z" fill="white"/>
</svg>
