<svg width="18" height="24" viewBox="0 0 18 24" fill="none" xmlns="http://www.w3.org/2000/svg">
<path d="M17.185 3.54462V24H0V0H13.6211L17.185 3.54462Z" fill="#299FFF"/>
<path d="M13.6211 3.54462V0L17.185 3.54462H13.6211Z" fill="#0050B3"/>
<path d="M7.27386 8.01499C7.27386 8.66453 6.7448 9.19072 6.09035 9.19072C5.43589 9.19072 4.9082 8.66453 4.9082 8.01499C4.9082 7.36545 5.43726 6.83789 6.09035 6.83789C6.74343 6.83789 7.27386 7.36408 7.27386 8.01499Z" fill="white"/>
<path d="M12.6875 15.1806H3.87571C3.66305 15.1806 3.5301 14.9515 3.6378 14.7703L5.77054 11.0933C5.87686 10.9106 6.1426 10.9106 6.24772 11.0933L6.75273 11.963L8.7867 8.45837C9.13093 7.86674 9.99031 7.86674 10.3347 8.45837L13.4622 13.8474C13.8064 14.439 13.3761 15.1805 12.6877 15.1805L12.6875 15.1806Z" fill="white"/>
<path d="M4.89851 20.5763C4.80387 20.5763 4.71575 20.5406 4.65391 20.4759C4.5919 20.414 4.55273 20.3298 4.55273 20.2357C4.55273 20.0409 4.70286 19.8916 4.89869 19.8916C4.99333 19.8916 5.07819 19.9307 5.14003 19.9922C5.20204 20.0537 5.2412 20.1415 5.2412 20.2355C5.2412 20.3295 5.20204 20.4139 5.14003 20.4757C5.07819 20.5405 4.99333 20.5762 4.89869 20.5762L4.89851 20.5763Z" fill="white"/>
<path d="M7.49661 18.9117C7.49661 19.1486 7.40196 19.3921 7.22246 19.5315C7.07903 19.6451 6.88973 19.7066 6.68086 19.7066H6.21432V20.3782C6.21432 20.4757 6.16537 20.5242 6.06746 20.5242H5.74452C5.64661 20.5242 5.59766 20.4755 5.59766 20.3782V18.2691C5.59766 18.1716 5.64661 18.123 5.74452 18.123H6.73634C6.94522 18.123 7.11802 18.1846 7.25836 18.3048C7.31058 18.3535 7.37242 18.4314 7.41811 18.5317C7.4638 18.6356 7.49644 18.7656 7.49644 18.9113L7.49661 18.9117ZM6.90279 18.9117C6.90279 18.798 6.83425 18.7138 6.70387 18.7138H6.21449V19.1161H6.68103C6.79526 19.1161 6.90279 19.0382 6.90279 18.9117Z" fill="white"/>
<path d="M8.05312 20.5242C7.95521 20.5242 7.90625 20.4755 7.90625 20.3782V18.2691C7.90625 18.1716 7.95521 18.123 8.05312 18.123H8.33362C8.40869 18.123 8.4707 18.1555 8.51312 18.2172L9.26686 19.3042V18.2693C9.26686 18.1717 9.31582 18.1232 9.41356 18.1232H9.73666C9.83457 18.1232 9.88336 18.1719 9.88336 18.2693V20.3783C9.88336 20.4759 9.8344 20.5244 9.73666 20.5244H9.45616C9.38109 20.5244 9.31908 20.4919 9.27665 20.4303L8.52292 19.3335V20.3782C8.52292 20.4757 8.47396 20.5242 8.37622 20.5242H8.05312Z" fill="white"/>
<path d="M11.5453 20.5794C11.1962 20.5794 10.8796 20.4364 10.6514 20.2095C10.4229 19.9823 10.2793 19.6709 10.2793 19.3236C10.2793 18.9762 10.4229 18.6583 10.6514 18.4312C10.8796 18.204 11.1962 18.0645 11.5453 18.0645C11.8943 18.0645 12.1977 18.191 12.4326 18.4246C12.5012 18.4991 12.4914 18.5707 12.4163 18.6323L12.1585 18.8334C12.0836 18.8953 12.0281 18.8855 11.9531 18.8238C11.8356 18.7263 11.6985 18.6778 11.5453 18.6778C11.3658 18.6778 11.2027 18.7492 11.0851 18.8659C10.9676 18.9827 10.896 19.1449 10.896 19.3236C10.896 19.5023 10.9678 19.6642 11.0851 19.7876C11.2026 19.9109 11.3658 19.9921 11.5453 19.9921C11.6856 19.9921 11.7899 19.9627 11.8682 19.9239C11.9433 19.8882 11.989 19.8427 12.0151 19.8135V19.6579H11.6138C11.5159 19.6579 11.4669 19.6092 11.4669 19.5118V19.3107C11.4669 19.2132 11.5159 19.1647 11.6138 19.1647H12.4849C12.5828 19.1647 12.6316 19.2134 12.6316 19.3107V19.8981C12.6316 19.9663 12.6185 20.018 12.5924 20.0604C12.3835 20.3751 12.041 20.5796 11.5451 20.5796L11.5453 20.5794Z" fill="white"/>
</svg>
