<svg width="24" height="24" viewBox="0 0 24 24" fill="none" xmlns="http://www.w3.org/2000/svg">
<path d="M16.7398 9.15039H22.939C23.5247 9.15039 23.9995 9.63526 23.9995 10.2334V16.0001C23.9995 18.1983 22.2545 19.9804 20.102 19.9804H20.0836C17.9311 19.9807 16.1859 18.1989 16.1855 16.0006C16.1855 16.0005 16.1855 16.0003 16.1855 16.0001V9.71641C16.1856 9.4038 16.4337 9.15039 16.7398 9.15039Z" fill="#5059C9"/>
<path d="M20.9296 8.00988C22.3167 8.00988 23.4412 6.86149 23.4412 5.44488C23.4412 4.02827 22.3167 2.87988 20.9296 2.87988C19.5425 2.87988 18.418 4.02827 18.418 5.44488C18.418 6.86149 19.5425 8.00988 20.9296 8.00988Z" fill="#5059C9"/>
<path d="M13.1162 8.00962C15.1198 8.00962 16.7441 6.35083 16.7441 4.30461C16.7441 2.2584 15.1198 0.599609 13.1162 0.599609C11.1126 0.599609 9.48828 2.2584 9.48828 4.30461C9.48828 6.35083 11.1126 8.00962 13.1162 8.00962Z" fill="#7B83EB"/>
<path d="M17.9531 9.15039H7.72012C7.14141 9.16502 6.68362 9.65548 6.69705 10.2465V16.8237C6.61624 20.3704 9.36381 23.3136 12.8366 23.4004C16.3094 23.3136 19.0569 20.3704 18.9761 16.8237V10.2465C18.9895 9.65548 18.5318 9.16502 17.9531 9.15039Z" fill="#7B83EB"/>
<path opacity="0.1" d="M13.3952 9.15039V18.3673C13.3925 18.79 13.1417 19.1697 12.759 19.3306C12.6371 19.3832 12.5062 19.4104 12.3738 19.4104H7.18872C7.11617 19.2223 7.04919 19.0342 6.99337 18.8404C6.798 18.1863 6.69831 17.5064 6.69755 16.8226V10.2448C6.68414 9.65471 7.14117 9.16502 7.71895 9.15039H13.3952Z" fill="black"/>
<path opacity="0.2" d="M12.8371 9.15039V18.9373C12.8371 19.0724 12.8105 19.2061 12.759 19.3306C12.6014 19.7214 12.2296 19.9776 11.8157 19.9804H7.45105C7.35617 19.7923 7.26687 19.6042 7.18872 19.4104C7.11058 19.2166 7.04919 19.0342 6.99337 18.8404C6.798 18.1864 6.69831 17.5064 6.69755 16.8226V10.2448C6.68414 9.65471 7.14117 9.16502 7.71895 9.15039H12.8371Z" fill="black"/>
<path opacity="0.2" d="M12.8371 9.15039V17.7973C12.8328 18.3716 12.378 18.8361 11.8157 18.8404H6.99337C6.798 18.1864 6.69831 17.5064 6.69755 16.8226V10.2448C6.68414 9.65471 7.14117 9.16502 7.71895 9.15039H12.8371Z" fill="black"/>
<path opacity="0.2" d="M12.2789 9.15039V17.7973C12.2747 18.3716 11.8199 18.8361 11.2576 18.8404H6.99337C6.798 18.1864 6.69831 17.5064 6.69755 16.8226V10.2448C6.68414 9.65471 7.14117 9.16502 7.71895 9.15039H12.2789Z" fill="black"/>
<path opacity="0.1" d="M13.3964 6.20325V7.99875C13.3015 8.00444 13.2122 8.01015 13.1173 8.01015C13.0224 8.01015 12.9331 8.00445 12.8382 7.99875C12.6498 7.98598 12.463 7.95545 12.2801 7.90755C11.1498 7.6342 10.2161 6.82471 9.76845 5.73015C9.69143 5.54634 9.63163 5.35548 9.58984 5.16016H12.375C12.9382 5.16233 13.3942 5.62806 13.3964 6.20325Z" fill="black"/>
<path opacity="0.2" d="M12.8373 6.77356V7.99906C12.6489 7.98629 12.4621 7.95577 12.2792 7.90787C11.149 7.63452 10.2152 6.82502 9.76758 5.73047H11.8159C12.3792 5.73265 12.8352 6.19838 12.8373 6.77356Z" fill="black"/>
<path opacity="0.2" d="M12.8373 6.77356V7.99906C12.6489 7.98629 12.4621 7.95577 12.2792 7.90787C11.149 7.63452 10.2152 6.82502 9.76758 5.73047H11.8159C12.3792 5.73265 12.8352 6.19838 12.8373 6.77356Z" fill="black"/>
<path opacity="0.2" d="M12.2792 6.77357V7.90787C11.149 7.63452 10.2152 6.82502 9.76758 5.73047H11.2578C11.821 5.73266 12.2771 6.19839 12.2792 6.77357Z" fill="black"/>
<path d="M1.02306 5.73047H11.256C11.821 5.73047 12.2791 6.19825 12.2791 6.77527V17.2257C12.2791 17.8027 11.821 18.2705 11.256 18.2705H1.02306C0.458037 18.2705 0 17.8027 0 17.2257V6.77527C0 6.19825 0.458048 5.73047 1.02306 5.73047Z" fill="url(#paint0_linear_6643_23258)"/>
<path d="M8.8322 9.70703H6.78661V15.3956H5.48336V9.70703H3.44727V8.60352H8.8322V9.70703Z" fill="white"/>
<defs>
<linearGradient id="paint0_linear_6643_23258" x1="2.13312" y1="4.91407" x2="10.4013" y2="18.9363" gradientUnits="userSpaceOnUse">
<stop stop-color="#5A62C3"/>
<stop offset="0.5" stop-color="#4D55BD"/>
<stop offset="1" stop-color="#3940AB"/>
</linearGradient>
</defs>
</svg>
