<svg width="24" height="24" viewBox="0 0 24 24" fill="none" xmlns="http://www.w3.org/2000/svg">
<path d="M4.83834 8.51119e-05C3.49439 8.51119e-05 2.40039 1.11315 2.40039 2.47948V21.5205C2.40039 22.8868 3.49439 23.9999 4.83834 23.9999H19.1593C20.5033 23.9999 21.5973 22.8869 21.5973 21.5205V5.86348C21.5973 5.86348 21.6356 5.40501 21.4399 4.95888C21.2564 4.54069 20.9573 4.24962 20.9573 4.24962C20.9566 4.24859 20.9558 4.24757 20.9551 4.24655L17.402 0.703256C17.4 0.701235 17.3981 0.699234 17.3961 0.697255C17.3961 0.697255 17.0927 0.403574 16.643 0.207386C16.1136 -0.0236163 15.5678 0.000768942 15.5678 0.000768942L15.5759 0L4.83834 8.51119e-05Z" fill="#FF2116"/>
<path d="M4.83805 0.814453H15.5757C15.5784 0.814481 15.5811 0.814481 15.5838 0.814453C15.5838 0.814453 16.0132 0.818684 16.3272 0.955704C16.6295 1.08758 16.8438 1.28721 16.8453 1.28855C16.8453 1.28855 16.8467 1.29009 16.8467 1.29009L20.391 4.8251C20.391 4.8251 20.6045 5.05431 20.708 5.29018C20.7915 5.48057 20.7967 5.82889 20.7967 5.82889C20.7963 5.83464 20.796 5.8404 20.7959 5.84616V21.5205C20.7959 22.4498 20.0731 23.1854 19.159 23.1854H4.83805C3.92395 23.1854 3.20117 22.4499 3.20117 21.5205V2.47944C3.20117 1.55003 3.92395 0.814453 4.83805 0.814453Z" fill="#F5F5F5"/>
<path d="M7.19447 14.2893C6.6433 13.7289 7.23962 12.9589 8.85794 12.1412L9.87622 11.6267L10.2729 10.7443C10.4911 10.2589 10.8167 9.46699 10.9966 8.98443L11.3235 8.10704L11.0982 7.45772C10.8212 6.65932 10.7224 5.45954 10.8981 5.02812C11.1362 4.44375 11.9161 4.50371 12.2248 5.13012C12.4659 5.61934 12.4413 6.50531 12.1554 7.62265L11.9211 8.53867L12.1275 8.8949C12.241 9.09083 12.5726 9.55605 12.8644 9.92871L13.4127 10.6222L14.0951 10.5317C16.2627 10.2441 17.0052 10.7328 17.0052 11.4336C17.0052 12.3181 15.3031 12.3911 13.8738 11.3705C13.5522 11.1408 13.3313 10.9127 13.3313 10.9127C13.3313 10.9127 12.4359 11.098 11.9951 11.2188C11.54 11.3435 11.313 11.4216 10.6464 11.6504C10.6464 11.6504 10.4125 11.9957 10.2601 12.2468C9.69307 13.1807 9.03103 13.9547 8.55822 14.2364C8.02885 14.5519 7.47389 14.5734 7.19447 14.2893ZM8.05943 13.9751C8.36925 13.7804 8.99632 13.0264 9.4304 12.3265L9.60615 12.0432L8.80592 12.4523C7.56997 13.0841 7.00455 13.6795 7.29856 14.0397C7.46373 14.242 7.66132 14.2253 8.05943 13.9751ZM16.0876 11.684C16.3907 11.4682 16.3467 11.0334 16.0041 10.858C15.7375 10.7216 15.5226 10.6936 14.8299 10.7039C14.4043 10.7335 13.7199 10.8207 13.6039 10.8472C13.6039 10.8472 13.9799 11.1114 14.1468 11.2085C14.3691 11.3375 14.9091 11.5771 15.3033 11.6998C15.6922 11.8208 15.9172 11.808 16.0876 11.684ZM12.8596 10.32C12.6762 10.124 12.3644 9.71488 12.1666 9.41089C11.908 9.06605 11.7783 8.82276 11.7783 8.82276C11.7783 8.82276 11.5893 9.44092 11.4342 9.81291L10.9503 11.0288L10.8101 11.3046C10.8101 11.3046 11.5558 11.056 11.9353 10.9552C12.3372 10.8485 13.1528 10.6854 13.1528 10.6854L12.8596 10.32ZM11.8193 6.07856C11.8661 5.67945 11.886 5.28094 11.7598 5.07998C11.41 4.69115 10.9877 5.0154 11.0593 5.93981C11.0833 6.25078 11.1593 6.78239 11.2609 7.11005L11.4456 7.70578L11.5756 7.25709C11.6471 7.01031 11.7568 6.47997 11.8193 6.07856Z" fill="#FF2116"/>
<path d="M8.13086 16.8848H9.02569C9.31161 16.8848 9.5437 16.9126 9.72196 16.9682C9.90022 17.022 10.0502 17.1432 10.172 17.3316C10.2938 17.5182 10.3547 17.7434 10.3547 18.0072C10.3547 18.2494 10.3053 18.4576 10.2064 18.6316C10.1076 18.8057 9.97435 18.9313 9.80668 19.0085C9.64078 19.0856 9.38486 19.1242 9.03893 19.1242H8.72918V20.5588H8.13086V16.8848ZM8.72918 17.3558V18.637H9.02569C9.29043 18.637 9.4731 18.5868 9.57371 18.4863C9.67607 18.3858 9.72726 18.2225 9.72726 17.9964C9.72726 17.8277 9.69372 17.6914 9.62666 17.5873C9.55959 17.4814 9.48546 17.4168 9.40427 17.3935C9.32485 17.3684 9.19865 17.3558 9.02569 17.3558L8.72918 17.3558ZM10.8127 16.8848H11.6255C12.019 16.8848 12.3332 16.9556 12.5679 17.0974C12.8045 17.2392 12.9827 17.45 13.1027 17.7299C13.2245 18.0099 13.2854 18.3203 13.2854 18.6612C13.2854 19.0201 13.2307 19.3404 13.1213 19.6221C13.0136 19.9021 12.8477 20.1282 12.6235 20.3004C12.4012 20.4727 12.0835 20.5588 11.6705 20.5588H10.8127V16.8848ZM11.411 17.3719V20.0717H11.6599C12.0076 20.0717 12.26 19.9496 12.417 19.7056C12.5741 19.4597 12.6527 19.1323 12.6527 18.7231C12.6527 17.8223 12.3217 17.3719 11.6599 17.3719H11.411ZM13.8599 16.8848H15.8666V17.3719H14.4582V18.4701H15.586V18.9573H14.4582V20.5588H13.8599V16.8848Z" fill="#2C2C2C"/>
</svg>
