<svg width="16" height="16" viewBox="0 0 16 16" fill="none" xmlns="http://www.w3.org/2000/svg">
<g clip-path="url(#clip0_8855_57273)">
<path d="M4.50065 9.39984C4.16928 9.39984 3.90065 9.66847 3.90065 9.99984C3.90065 10.3312 4.16928 10.5998 4.50065 10.5998V9.39984ZM6.08398 10.5998C6.41535 10.5998 6.68398 10.3312 6.68398 9.99984C6.68398 9.66847 6.41535 9.39984 6.08398 9.39984V10.5998ZM4.50065 6.28873C4.16928 6.28873 3.90065 6.55736 3.90065 6.88873C3.90065 7.2201 4.16928 7.48873 4.50065 7.48873V6.28873ZM9.25065 7.48873C9.58202 7.48873 9.85065 7.2201 9.85065 6.88873C9.85065 6.55736 9.58202 6.28873 9.25065 6.28873V7.48873ZM4.50065 3.17761C4.16928 3.17761 3.90065 3.44624 3.90065 3.77762C3.90065 4.10899 4.16928 4.37761 4.50065 4.37761V3.17761ZM9.25065 4.37761C9.58202 4.37761 9.85065 4.10899 9.85065 3.77762C9.85065 3.44624 9.58202 3.17761 9.25065 3.17761V4.37761ZM11.8173 8.05539C11.8173 8.38676 12.0859 8.65539 12.4173 8.65539C12.7487 8.65539 13.0173 8.38676 13.0173 8.05539H11.8173ZM6.08398 15.2665C6.41535 15.2665 6.68398 14.9979 6.68398 14.6665C6.68398 14.3351 6.41535 14.0665 6.08398 14.0665V15.2665ZM2.18744 14.4914L2.46018 13.9569H2.46018L2.18744 14.4914ZM1.51225 13.828L0.981825 14.1085H0.981825L1.51225 13.828ZM11.5639 0.841639L11.2911 1.37607L11.2911 1.37607L11.5639 0.841639ZM12.2391 1.50499L11.7086 1.78544V1.78544L12.2391 1.50499ZM2.18744 0.841639L1.9147 0.307212L2.18744 0.841639ZM1.51225 1.50499L2.04267 1.78544L1.51225 1.50499ZM4.50065 10.5998H6.08398V9.39984H4.50065V10.5998ZM4.50065 7.48873H9.25065V6.28873H4.50065V7.48873ZM4.50065 4.37761H9.25065V3.17761H4.50065V4.37761ZM3.88315 1.2665H9.86815V0.0665039H3.88315V1.2665ZM11.8173 3.17095V8.05539H13.0173V3.17095H11.8173ZM6.08398 14.0665H3.88315V15.2665H6.08398V14.0665ZM1.93398 12.1621V3.17095H0.733984V12.1621H1.93398ZM3.88315 14.0665C3.42241 14.0665 3.1129 14.066 2.87464 14.0466C2.64325 14.0277 2.53278 13.994 2.46018 13.9569L1.9147 15.0258C2.18527 15.1639 2.47181 15.2177 2.77706 15.2426C3.07544 15.267 3.4422 15.2665 3.88315 15.2665V14.0665ZM0.733984 12.1621C0.733984 12.5947 0.733485 12.9566 0.758399 13.2513C0.783949 13.5536 0.839381 13.8391 0.981825 14.1085L2.04267 13.5476C2.00685 13.4798 1.97315 13.3752 1.95414 13.1503C1.93448 12.9178 1.93398 12.6152 1.93398 12.1621H0.733984ZM2.46018 13.9569C2.27977 13.8649 2.13454 13.7213 2.04267 13.5476L0.981825 14.1085C1.19039 14.5029 1.51674 14.8227 1.9147 15.0258L2.46018 13.9569ZM9.86815 1.2665C10.3289 1.2665 10.6384 1.26697 10.8767 1.28641C11.1081 1.30529 11.2185 1.33901 11.2911 1.37607L11.8366 0.307212C11.566 0.169128 11.2795 0.115287 10.9742 0.0903828C10.6759 0.0660384 10.3091 0.0665039 9.86815 0.0665039V1.2665ZM13.0173 3.17095C13.0173 2.73826 13.0178 2.3764 12.9929 2.08166C12.9674 1.7794 12.9119 1.49394 12.7695 1.22454L11.7086 1.78544C11.7445 1.85318 11.7782 1.95777 11.7972 2.18273C11.8168 2.41521 11.8173 2.71776 11.8173 3.17095H13.0173ZM11.2911 1.37607C11.4715 1.46814 11.6168 1.61167 11.7086 1.78544L12.7695 1.22454C12.5609 0.830078 12.2346 0.510308 11.8366 0.307212L11.2911 1.37607ZM3.88315 0.0665039C3.4422 0.0665039 3.07544 0.0660384 2.77706 0.0903828C2.47181 0.115287 2.18527 0.169128 1.9147 0.307212L2.46018 1.37607C2.53278 1.33901 2.64325 1.30529 2.87464 1.28641C3.1129 1.26697 3.42241 1.2665 3.88315 1.2665V0.0665039ZM1.93398 3.17095C1.93398 2.71776 1.93448 2.41521 1.95414 2.18273C1.97315 1.95777 2.00685 1.85318 2.04267 1.78544L0.981825 1.22454C0.839381 1.49394 0.783949 1.7794 0.758399 2.08166C0.733485 2.3764 0.733984 2.73826 0.733984 3.17095H1.93398ZM1.9147 0.307212C1.51674 0.510308 1.19039 0.830079 0.981825 1.22454L2.04267 1.78544C2.13454 1.61167 2.27977 1.46814 2.46018 1.37607L1.9147 0.307212Z" fill="url(#paint0_linear_8855_57273)"/>
<path d="M8.66699 10.6665V11.1665C8.66699 11.9949 9.33857 12.6665 10.167 12.6665H15.167M13.667 10.6665L15.3134 12.313C15.5087 12.5082 15.5087 12.8248 15.3134 13.0201L13.667 14.6665" stroke="url(#paint1_linear_8855_57273)" stroke-width="1.2" stroke-linecap="round"/>
</g>
<defs>
<linearGradient id="paint0_linear_8855_57273" x1="-4.96966" y1="-7.121" x2="16.1894" y2="8.89584" gradientUnits="userSpaceOnUse">
<stop stop-color="#299FFF"/>
<stop offset="1" stop-color="#0202A8"/>
</linearGradient>
<linearGradient id="paint1_linear_8855_57273" x1="4.80353" y1="8.4415" x2="10.4127" y2="17.5497" gradientUnits="userSpaceOnUse">
<stop stop-color="#299FFF"/>
<stop offset="1" stop-color="#0202A8"/>
</linearGradient>
<clipPath id="clip0_8855_57273">
<rect width="16" height="16" fill="white"/>
</clipPath>
</defs>
</svg>
