<svg width="16" height="16" viewBox="0 0 16 16" fill="none" xmlns="http://www.w3.org/2000/svg">
<path d="M8.6 2C8.6 1.66863 8.33137 1.4 8 1.4C7.66863 1.4 7.4 1.66863 7.4 2L8.6 2ZM7.4 9.33333C7.4 9.6647 7.66863 9.93333 8 9.93333C8.33137 9.93333 8.6 9.6647 8.6 9.33333H7.4ZM11.0909 8.42426C11.3252 8.18995 11.3252 7.81005 11.0909 7.57574C10.8566 7.34142 10.4767 7.34142 10.2424 7.57574L11.0909 8.42426ZM8.4714 10.1953L8.04714 9.771L8.4714 10.1953ZM7.5286 10.1953L7.95286 9.771L7.5286 10.1953ZM5.7576 7.57574C5.52328 7.34142 5.14338 7.34142 4.90907 7.57574C4.67475 7.81005 4.67475 8.18995 4.90907 8.42426L5.7576 7.57574ZM2.6 10.6667C2.6 10.3353 2.33137 10.0667 2 10.0667C1.66863 10.0667 1.4 10.3353 1.4 10.6667H2.6ZM14.6 10.6667C14.6 10.3353 14.3314 10.0667 14 10.0667C13.6686 10.0667 13.4 10.3353 13.4 10.6667H14.6ZM12.908 13.782L12.6356 13.2474V13.2474L12.908 13.782ZM13.782 12.908L14.3166 13.1804L13.782 12.908ZM2.21799 12.908L1.68338 13.1804L2.21799 12.908ZM3.09202 13.782L2.81962 14.3166H2.81962L3.09202 13.782ZM7.4 2L7.4 9.33333H8.6L8.6 2L7.4 2ZM10.2424 7.57574L8.04714 9.771L8.89567 10.6195L11.0909 8.42426L10.2424 7.57574ZM7.95286 9.771L5.7576 7.57574L4.90907 8.42426L7.10433 10.6195L7.95286 9.771ZM8.04714 9.771C8.02111 9.79703 7.97889 9.79703 7.95286 9.771L7.10433 10.6195C7.599 11.1142 8.401 11.1142 8.89567 10.6195L8.04714 9.771ZM1.4 10.6667V10.8H2.6V10.6667H1.4ZM5.2 14.6H10.8V13.4H5.2V14.6ZM14.6 10.8V10.6667H13.4V10.8H14.6ZM10.8 14.6C11.3502 14.6 11.7989 14.6005 12.1625 14.5708C12.5331 14.5405 12.8678 14.4759 13.1804 14.3166L12.6356 13.2474C12.5204 13.3061 12.3611 13.3505 12.0647 13.3747C11.7613 13.3995 11.37 13.4 10.8 13.4V14.6ZM13.4 10.8C13.4 11.37 13.3995 11.7613 13.3747 12.0647C13.3505 12.3611 13.3061 12.5204 13.2474 12.6356L14.3166 13.1804C14.4759 12.8678 14.5405 12.5331 14.5708 12.1625C14.6005 11.7989 14.6 11.3502 14.6 10.8H13.4ZM13.1804 14.3166C13.6696 14.0673 14.0673 13.6696 14.3166 13.1804L13.2474 12.6356C13.1132 12.899 12.899 13.1132 12.6356 13.2474L13.1804 14.3166ZM1.4 10.8C1.4 11.3502 1.39953 11.7989 1.42924 12.1625C1.45952 12.5331 1.52411 12.8678 1.68338 13.1804L2.75259 12.6356C2.69388 12.5204 2.64947 12.3611 2.62526 12.0647C2.60047 11.7613 2.6 11.37 2.6 10.8H1.4ZM5.2 13.4C4.63005 13.4 4.23867 13.3995 3.93526 13.3747C3.63886 13.3505 3.47964 13.3061 3.36441 13.2474L2.81962 14.3166C3.13222 14.4759 3.46694 14.5405 3.83754 14.5708C4.20115 14.6005 4.64985 14.6 5.2 14.6V13.4ZM1.68338 13.1804C1.93265 13.6696 2.3304 14.0673 2.81962 14.3166L3.36441 13.2474C3.10099 13.1132 2.88681 12.899 2.75259 12.6356L1.68338 13.1804Z" fill="url(#paint0_linear_6593_78886)"/>
<defs>
<linearGradient id="paint0_linear_6593_78886" x1="-4.825" y1="-4.675" x2="14" y2="13.325" gradientUnits="userSpaceOnUse">
<stop stop-color="#299FFF"/>
<stop offset="1" stop-color="#0202A8"/>
</linearGradient>
</defs>
</svg>
