<svg width="24" height="24" viewBox="0 0 24 24" fill="none" xmlns="http://www.w3.org/2000/svg">
<path d="M4.99999 14C4.99999 13.4477 4.55228 13 3.99999 13C3.44771 13 2.99999 13.4477 2.99999 14H4.99999ZM5.10557 18.5528L4.65835 19.4472H4.65835L5.10557 18.5528ZM10.9967 21.4984L11.444 20.604H11.444L10.9967 21.4984ZM12.9512 21.4055L12.4861 20.5203L12.4529 20.5377L12.4212 20.5576L12.9512 21.4055ZM19.06 18.196L19.5251 19.0812L19.5582 19.0638L19.59 19.044L19.06 18.196ZM21 13.5C21 12.9477 20.5523 12.5 20 12.5C19.4477 12.5 19 12.9477 19 13.5H21ZM12 13L12.7071 12.2929L12 11.5858L11.2929 12.2929L12 13ZM12.2236 12.8882L12.6708 13.7827L12.2236 12.8882ZM19.8211 9.08947L19.3739 8.19505L19.8211 9.08947ZM19.8211 8.91059L19.3739 9.80502L19.8211 8.91059ZM12.2236 5.11184L12.6708 4.21741L12.6708 4.21741L12.2236 5.11184ZM11.7764 5.11184L11.3292 4.21741L11.7764 5.11184ZM4.17888 8.91059L4.62609 9.80502H4.62609L4.17888 8.91059ZM4.17888 9.08947L4.62609 8.19505H4.62609L4.17888 9.08947ZM11.7764 12.8882L12.2236 11.9938L12.2236 11.9938L11.7764 12.8882ZM15.3269 15.8257L15.7975 16.708L15.7975 16.708L15.3269 15.8257ZM21.9578 12.2892L21.4872 11.4069L21.9578 12.2892ZM22.1066 11.5279L21.3384 12.1681V12.1681L22.1066 11.5279ZM20 9.00003L19.2929 8.29293L18.6471 8.93867L19.2318 9.64022L20 9.00003ZM8.67311 15.8257L8.20252 16.708L8.20252 16.708L8.67311 15.8257ZM2.04221 12.2892L2.5128 11.4069H2.5128L2.04221 12.2892ZM1.8934 11.5279L2.66162 12.1681L2.66162 12.1681L1.8934 11.5279ZM3.99999 9.00003L4.76822 9.64022L5.35284 8.93867L4.7071 8.29293L3.99999 9.00003ZM14.7452 2.25486L14.0381 1.54775V1.54775L14.7452 2.25486ZM15.3223 2.1612L15.7695 1.26677V1.26677L15.3223 2.1612ZM22.3795 5.68979L21.9323 6.58422L22.3795 5.68979ZM22.5095 6.49056L21.8024 5.78345V5.78345L22.5095 6.49056ZM9.25482 2.25486L9.96193 1.54775V1.54775L9.25482 2.25486ZM8.67766 2.1612L8.23045 1.26677V1.26677L8.67766 2.1612ZM1.62047 5.68979L1.17326 4.79537L1.62047 5.68979ZM1.49052 6.49056L2.19763 5.78345L1.49052 6.49056ZM12.3535 4.64648L13.0607 5.35359L12.3535 4.64648ZM11.6464 4.64648L10.9393 5.35359L11.6464 4.64648ZM2.99999 14V16.764H4.99999V14H2.99999ZM4.65835 19.4472L10.5495 22.3928L11.444 20.604L5.55278 17.6584L4.65835 19.4472ZM13.4163 22.2908L19.5251 19.0812L18.5949 17.3107L12.4861 20.5203L13.4163 22.2908ZM21 16.5V13.5H19V16.5H21ZM19.59 19.044C20.4671 18.4958 21 17.5344 21 16.5H19C19 16.8448 18.8224 17.1653 18.53 17.348L19.59 19.044ZM10.5495 22.3928C11.4843 22.8602 12.5949 22.8074 13.4812 22.2535L12.4212 20.5576C12.1258 20.7422 11.7555 20.7598 11.444 20.604L10.5495 22.3928ZM2.99999 16.764C2.99999 17.9003 3.642 18.9391 4.65835 19.4472L5.55278 17.6584C5.214 17.489 4.99999 17.1427 4.99999 16.764H2.99999ZM13 22V13H11V22H13ZM12.6708 13.7827L20.2683 9.9839L19.3739 8.19505L11.7764 11.9938L12.6708 13.7827ZM20.2683 8.01616L12.6708 4.21741L11.7764 6.00626L19.3739 9.80502L20.2683 8.01616ZM11.3292 4.21741L3.73167 8.01616L4.62609 9.80502L12.2236 6.00626L11.3292 4.21741ZM3.73167 9.9839L11.3292 13.7827L12.2236 11.9938L4.62609 8.19505L3.73167 9.9839ZM3.73167 8.01616C2.9209 8.42154 2.92092 9.57853 3.73167 9.9839L4.62609 8.19505C5.28943 8.52671 5.28945 9.47334 4.62609 9.80502L3.73167 8.01616ZM12.6708 4.21741C12.2485 4.00626 11.7515 4.00626 11.3292 4.21741L12.2236 6.00626C12.0828 6.07664 11.9172 6.07664 11.7764 6.00626L12.6708 4.21741ZM20.2683 9.9839C21.0791 9.57852 21.0791 8.42153 20.2683 8.01616L19.3739 9.80502C18.7106 9.47335 18.7105 8.52672 19.3739 8.19505L20.2683 9.9839ZM11.7764 11.9938C11.9172 11.9234 12.0828 11.9234 12.2236 11.9938L11.3292 13.7827C11.7515 13.9938 12.2485 13.9938 12.6708 13.7827L11.7764 11.9938ZM11.2929 13.7071L14.0309 16.4452L15.4451 15.031L12.7071 12.2929L11.2929 13.7071ZM15.7975 16.708L22.4284 13.1716L21.4872 11.4069L14.8563 14.9433L15.7975 16.708ZM22.8748 10.8878L20.7682 8.35985L19.2318 9.64022L21.3384 12.1681L22.8748 10.8878ZM22.4284 13.1716C23.2676 12.724 23.4837 11.6184 22.8748 10.8878L21.3384 12.1681C21.1354 11.9246 21.2075 11.5561 21.4872 11.4069L22.4284 13.1716ZM14.0309 16.4452C14.4978 16.912 15.2149 17.0187 15.7975 16.708L14.8563 14.9433C15.0505 14.8398 15.2895 14.8754 15.4451 15.031L14.0309 16.4452ZM11.2929 12.2929L8.55485 15.031L9.96906 16.4452L12.7071 13.7071L11.2929 12.2929ZM9.1437 14.9433L2.5128 11.4069L1.57163 13.1716L8.20252 16.708L9.1437 14.9433ZM2.66162 12.1681L4.76822 9.64022L3.23177 8.35985L1.12518 10.8878L2.66162 12.1681ZM2.5128 11.4069C2.79254 11.5561 2.86458 11.9246 2.66162 12.1681L1.12518 10.8878C0.5163 11.6184 0.732426 12.724 1.57163 13.1716L2.5128 11.4069ZM8.55485 15.031C8.71046 14.8754 8.94952 14.8398 9.1437 14.9433L8.20252 16.708C8.78505 17.0187 9.50223 16.912 9.96906 16.4452L8.55485 15.031ZM13.0607 5.35359L15.4523 2.96197L14.0381 1.54775L11.6464 3.93937L13.0607 5.35359ZM14.8751 3.05563L21.9323 6.58422L22.8267 4.79537L15.7695 1.26677L14.8751 3.05563ZM21.8024 5.78345L19.2929 8.29293L20.7071 9.70714L23.2166 7.19767L21.8024 5.78345ZM21.9323 6.58422C21.6271 6.4316 21.561 6.02477 21.8024 5.78345L23.2166 7.19767C23.9405 6.47371 23.7425 5.25324 22.8267 4.79537L21.9323 6.58422ZM15.4523 2.96197C15.3001 3.11415 15.0676 3.15187 14.8751 3.05563L15.7695 1.26677C15.1921 0.97803 14.4946 1.09121 14.0381 1.54775L15.4523 2.96197ZM12.3535 3.93937L9.96193 1.54775L8.54771 2.96197L10.9393 5.35359L12.3535 3.93937ZM8.23045 1.26677L1.17326 4.79537L2.06768 6.58422L9.12487 3.05563L8.23045 1.26677ZM0.783416 7.19767L3.29289 9.70714L4.7071 8.29293L2.19763 5.78345L0.783416 7.19767ZM1.17326 4.79537C0.257509 5.25324 0.0594544 6.47371 0.783416 7.19767L2.19763 5.78345C2.43895 6.02478 2.37293 6.4316 2.06768 6.58422L1.17326 4.79537ZM9.96193 1.54775C9.50539 1.09121 8.80793 0.97803 8.23045 1.26677L9.12487 3.05563C8.93238 3.15187 8.69989 3.11415 8.54771 2.96197L9.96193 1.54775ZM11.6464 3.93937C11.8417 3.74411 12.1583 3.74411 12.3535 3.93937L10.9393 5.35359C11.5251 5.93937 12.4749 5.93937 13.0607 5.35359L11.6464 3.93937Z" fill="black"/>
</svg>
