<svg width="16" height="16" viewBox="0 0 16 16" fill="none" xmlns="http://www.w3.org/2000/svg">
<g clip-path="url(#clip0_8489_25737)">
<path d="M4.50065 9.39992C4.16928 9.39992 3.90065 9.66855 3.90065 9.99992C3.90065 10.3313 4.16928 10.5999 4.50065 10.5999V9.39992ZM6.08398 10.5999C6.41535 10.5999 6.68398 10.3313 6.68398 9.99992C6.68398 9.66855 6.41535 9.39992 6.08398 9.39992V10.5999ZM4.50065 6.28881C4.16928 6.28881 3.90065 6.55744 3.90065 6.88881C3.90065 7.22018 4.16928 7.48881 4.50065 7.48881V6.28881ZM9.25065 7.48881C9.58202 7.48881 9.85065 7.22018 9.85065 6.88881C9.85065 6.55744 9.58202 6.28881 9.25065 6.28881V7.48881ZM4.50065 3.1777C4.16928 3.1777 3.90065 3.44633 3.90065 3.7777C3.90065 4.10907 4.16928 4.3777 4.50065 4.3777V3.1777ZM9.25065 4.3777C9.58202 4.3777 9.85065 4.10907 9.85065 3.7777C9.85065 3.44633 9.58202 3.1777 9.25065 3.1777V4.3777ZM11.8173 8.05548C11.8173 8.38685 12.0859 8.65548 12.4173 8.65548C12.7487 8.65548 13.0173 8.38685 13.0173 8.05548H11.8173ZM6.08398 15.2666C6.41535 15.2666 6.68398 14.998 6.68398 14.6666C6.68398 14.3352 6.41535 14.0666 6.08398 14.0666V15.2666ZM2.18744 14.4915L2.46018 13.957H2.46018L2.18744 14.4915ZM1.51225 13.8281L0.981825 14.1086H0.981825L1.51225 13.8281ZM11.5639 0.841722L11.2911 1.37615L11.2911 1.37615L11.5639 0.841722ZM12.2391 1.50507L11.7086 1.78552V1.78552L12.2391 1.50507ZM2.18744 0.841722L1.9147 0.307296L2.18744 0.841722ZM1.51225 1.50507L2.04267 1.78552L1.51225 1.50507ZM4.50065 10.5999H6.08398V9.39992H4.50065V10.5999ZM4.50065 7.48881H9.25065V6.28881H4.50065V7.48881ZM4.50065 4.3777H9.25065V3.1777H4.50065V4.3777ZM3.88315 1.26659H9.86815V0.0665878H3.88315V1.26659ZM11.8173 3.17103V8.05548H13.0173V3.17103H11.8173ZM6.08398 14.0666H3.88315V15.2666H6.08398V14.0666ZM1.93398 12.1621V3.17103H0.733984V12.1621H1.93398ZM3.88315 14.0666C3.42241 14.0666 3.1129 14.0661 2.87464 14.0467C2.64325 14.0278 2.53278 13.9941 2.46018 13.957L1.9147 15.0259C2.18527 15.164 2.47181 15.2178 2.77706 15.2427C3.07544 15.2671 3.4422 15.2666 3.88315 15.2666V14.0666ZM0.733984 12.1621C0.733984 12.5948 0.733485 12.9567 0.758399 13.2514C0.783949 13.5537 0.839381 13.8391 0.981825 14.1086L2.04267 13.5477C2.00685 13.4799 1.97315 13.3753 1.95414 13.1504C1.93448 12.9179 1.93398 12.6153 1.93398 12.1621H0.733984ZM2.46018 13.957C2.27977 13.865 2.13454 13.7214 2.04267 13.5477L0.981825 14.1086C1.19039 14.503 1.51674 14.8228 1.9147 15.0259L2.46018 13.957ZM9.86815 1.26659C10.3289 1.26659 10.6384 1.26705 10.8767 1.28649C11.1081 1.30537 11.2185 1.3391 11.2911 1.37615L11.8366 0.307296C11.566 0.169212 11.2795 0.115371 10.9742 0.0904667C10.6759 0.0661223 10.3091 0.0665878 9.86815 0.0665878V1.26659ZM13.0173 3.17103C13.0173 2.73834 13.0178 2.37649 12.9929 2.08174C12.9674 1.77949 12.9119 1.49403 12.7695 1.22462L11.7086 1.78552C11.7445 1.85327 11.7782 1.95785 11.7972 2.18282C11.8168 2.4153 11.8173 2.71785 11.8173 3.17103H13.0173ZM11.2911 1.37615C11.4715 1.46822 11.6168 1.61176 11.7086 1.78552L12.7695 1.22462C12.5609 0.830162 12.2346 0.510392 11.8366 0.307296L11.2911 1.37615ZM3.88315 0.0665878C3.4422 0.0665878 3.07544 0.0661223 2.77706 0.0904667C2.47181 0.115371 2.18527 0.169212 1.9147 0.307296L2.46018 1.37615C2.53278 1.3391 2.64325 1.30537 2.87464 1.28649C3.1129 1.26705 3.42241 1.26659 3.88315 1.26659V0.0665878ZM1.93398 3.17103C1.93398 2.71785 1.93448 2.4153 1.95414 2.18282C1.97315 1.95785 2.00685 1.85327 2.04267 1.78552L0.981825 1.22462C0.839381 1.49403 0.783949 1.77949 0.758399 2.08174C0.733485 2.37649 0.733984 2.73834 0.733984 3.17103H1.93398ZM1.9147 0.307296C1.51674 0.510392 1.19039 0.830163 0.981825 1.22462L2.04267 1.78552C2.13454 1.61176 2.27977 1.46822 2.46018 1.37615L1.9147 0.307296Z" fill="#000536"/>
<path d="M8.66699 10.6666V11.1666C8.66699 11.995 9.33857 12.6666 10.167 12.6666H15.167M13.667 10.6666L15.3134 12.313C15.5087 12.5083 15.5087 12.8249 15.3134 13.0201L13.667 14.6666" stroke="#000536" stroke-width="1.2" stroke-linecap="round"/>
</g>
<defs>
<clipPath id="clip0_8489_25737">
<rect width="16" height="16" fill="white"/>
</clipPath>
</defs>
</svg>
