<svg width="13" height="13" viewBox="0 0 13 13" fill="none" xmlns="http://www.w3.org/2000/svg">
<path d="M3.98692 4.50327C4.41088 5.3863 4.98883 6.2139 5.72076 6.94583C6.45269 7.67776 7.28029 8.2557 8.16331 8.67966C8.23926 8.71613 8.27724 8.73436 8.3253 8.74837C8.49607 8.79815 8.70577 8.7624 8.8504 8.65884C8.8911 8.62969 8.92592 8.59488 8.99555 8.52525C9.20851 8.31229 9.31499 8.20581 9.42206 8.13619C9.82585 7.87366 10.3464 7.87366 10.7502 8.13619C10.8573 8.20581 10.9638 8.31229 11.1767 8.52525L11.2954 8.64395C11.6191 8.96767 11.781 9.12953 11.8689 9.30337C12.0438 9.64909 12.0438 10.0574 11.8689 10.4031C11.781 10.5769 11.6191 10.7388 11.2954 11.0625L11.1994 11.1585C10.8768 11.4812 10.7155 11.6425 10.4962 11.7657C10.2528 11.9024 9.87485 12.0007 9.59572 11.9998C9.34418 11.9991 9.17227 11.9503 8.82844 11.8527C6.98068 11.3282 5.2371 10.3387 3.78248 8.8841C2.32787 7.42949 1.33834 5.68591 0.813885 3.83814C0.716296 3.49432 0.667501 3.3224 0.666753 3.07086C0.665923 2.79174 0.764215 2.41377 0.900918 2.17042C1.02412 1.95111 1.18542 1.7898 1.50804 1.46719L1.60406 1.37116C1.92778 1.04744 2.08964 0.88558 2.26348 0.797653C2.60921 0.622787 3.01749 0.622787 3.36321 0.797653C3.53705 0.885579 3.69891 1.04744 4.02264 1.37116L4.14134 1.48987C4.3543 1.70283 4.46078 1.80931 4.53039 1.91638C4.79293 2.32017 4.79293 2.84073 4.53039 3.24453C4.46078 3.3516 4.3543 3.45808 4.14134 3.67104C4.07171 3.74067 4.03689 3.77549 4.00775 3.81618C3.90419 3.96081 3.86843 4.17051 3.91821 4.34129C3.93222 4.38934 3.95045 4.42732 3.98692 4.50327Z" stroke="#000536" stroke-width="1.2" stroke-linecap="round" stroke-linejoin="round"/>
</svg>
