<svg width="24" height="24" viewBox="0 0 24 24" fill="none" xmlns="http://www.w3.org/2000/svg">
<path d="M3.45602 7.23996L3.97052 7.54866L3.45602 7.23996ZM5.06783 4.55361L5.58233 4.86231L5.06783 4.55361ZM18.9322 4.55361L18.4177 4.86231V4.86231L18.9322 4.55361ZM20.544 7.23996L20.0295 7.54866L20.544 7.23996ZM17.476 3.09479L17.2935 3.66635L17.2935 3.66635L17.476 3.09479ZM18.1883 3.49806L18.5845 3.04747L18.5845 3.04747L18.1883 3.49806ZM5.81171 3.49806L6.20791 3.94864V3.94864L5.81171 3.49806ZM6.52395 3.09479L6.34142 2.52323L6.34142 2.52323L6.52395 3.09479ZM20.9738 8.23113L20.3816 8.32799L20.3816 8.32799L20.9738 8.23113ZM20.8586 7.8153L21.4162 7.5937L21.4162 7.59369L20.8586 7.8153ZM19.908 20.782L19.6356 20.2474V20.2474L19.908 20.782ZM20.782 19.908L20.2474 19.6356H20.2474L20.782 19.908ZM3.21799 19.908L2.68338 20.1804H2.68338L3.21799 19.908ZM4.09202 20.782L4.36441 20.2474L4.36441 20.2474L4.09202 20.782ZM3.02623 8.23113L2.4341 8.13428L3.02623 8.23113ZM3.14141 7.8153L2.58383 7.5937H2.58383L3.14141 7.8153ZM4 7.4C3.66863 7.4 3.4 7.66863 3.4 8C3.4 8.33137 3.66863 8.6 4 8.6V7.4ZM20 8.6C20.3314 8.6 20.6 8.33137 20.6 8C20.6 7.66863 20.3314 7.4 20 7.4V8.6ZM15.6 12C15.6 11.6686 15.3314 11.4 15 11.4C14.6686 11.4 14.4 11.6686 14.4 12H15.6ZM9.6 12C9.6 11.6686 9.33137 11.4 9 11.4C8.66863 11.4 8.4 11.6686 8.4 12H9.6ZM2.4 8.88635V17.8H3.6V8.88635H2.4ZM6.2 21.6H17.8V20.4H6.2V21.6ZM21.6 17.8V8.88635H20.4V17.8H21.6ZM3.97052 7.54866L5.58233 4.86231L4.55334 4.24492L2.94153 6.93126L3.97052 7.54866ZM7.81181 3.6H16.1882V2.4H7.81181V3.6ZM18.4177 4.86231L20.0295 7.54866L21.0585 6.93126L19.4467 4.24492L18.4177 4.86231ZM16.1882 3.6C16.8885 3.6 17.1068 3.60674 17.2935 3.66635L17.6586 2.52323C17.2516 2.39326 16.8092 2.4 16.1882 2.4V3.6ZM19.4467 4.24492C19.1271 3.71238 18.9053 3.32959 18.5845 3.04747L17.7921 3.94864C17.9392 4.07804 18.0574 4.26178 18.4177 4.86231L19.4467 4.24492ZM17.2935 3.66635C17.4774 3.72507 17.6471 3.82118 17.7921 3.94864L18.5845 3.04747C18.3153 2.81077 18.0001 2.63228 17.6586 2.52323L17.2935 3.66635ZM5.58233 4.86231C5.94264 4.26178 6.06075 4.07804 6.20791 3.94864L5.41551 3.04747C5.09467 3.32959 4.87286 3.71238 4.55334 4.24492L5.58233 4.86231ZM7.81181 2.4C7.19077 2.4 6.74841 2.39326 6.34142 2.52323L6.70648 3.66635C6.89315 3.60674 7.11148 3.6 7.81181 3.6V2.4ZM6.20791 3.94864C6.35287 3.82118 6.52261 3.72507 6.70648 3.66635L6.34142 2.52323C5.99995 2.63228 5.68471 2.81077 5.41551 3.04747L6.20791 3.94864ZM21.6 8.88635C21.6 8.57529 21.6018 8.35378 21.5659 8.13428L20.3816 8.32799C20.3982 8.42919 20.4 8.53759 20.4 8.88635H21.6ZM20.0295 7.54866C20.2089 7.84772 20.2631 7.9416 20.301 8.0369L21.4162 7.59369C21.334 7.38701 21.2185 7.198 21.0585 6.93126L20.0295 7.54866ZM21.5659 8.13428C21.5356 7.94922 21.4854 7.76797 21.4162 7.5937L20.301 8.03689C20.3383 8.13073 20.3653 8.22833 20.3816 8.32799L21.5659 8.13428ZM17.8 21.6C18.3502 21.6 18.7989 21.6005 19.1625 21.5708C19.5331 21.5405 19.8678 21.4759 20.1804 21.3166L19.6356 20.2474C19.5204 20.3061 19.3611 20.3505 19.0647 20.3747C18.7613 20.3995 18.37 20.4 17.8 20.4V21.6ZM20.4 17.8C20.4 18.37 20.3995 18.7613 20.3747 19.0647C20.3505 19.3611 20.3061 19.5204 20.2474 19.6356L21.3166 20.1804C21.4759 19.8678 21.5405 19.5331 21.5708 19.1625C21.6005 18.7989 21.6 18.3502 21.6 17.8H20.4ZM20.1804 21.3166C20.6696 21.0673 21.0673 20.6696 21.3166 20.1804L20.2474 19.6356C20.1132 19.899 19.899 20.1132 19.6356 20.2474L20.1804 21.3166ZM2.4 17.8C2.4 18.3502 2.39953 18.7989 2.42924 19.1625C2.45952 19.5331 2.52411 19.8678 2.68338 20.1804L3.75259 19.6356C3.69388 19.5204 3.64947 19.3611 3.62526 19.0647C3.60047 18.7613 3.6 18.37 3.6 17.8H2.4ZM6.2 20.4C5.63005 20.4 5.23867 20.3995 4.93526 20.3747C4.63886 20.3505 4.47964 20.3061 4.36441 20.2474L3.81962 21.3166C4.13222 21.4759 4.46694 21.5405 4.83754 21.5708C5.20115 21.6005 5.64985 21.6 6.2 21.6V20.4ZM2.68338 20.1804C2.93265 20.6696 3.3304 21.0673 3.81963 21.3166L4.36441 20.2474C4.10099 20.1132 3.88681 19.899 3.75259 19.6356L2.68338 20.1804ZM3.6 8.88635C3.6 8.53759 3.60181 8.42919 3.61836 8.32798L2.4341 8.13428C2.39819 8.35378 2.4 8.57529 2.4 8.88635H3.6ZM2.94153 6.93126C2.78149 7.19799 2.66597 7.38701 2.58383 7.5937L3.69899 8.0369C3.73686 7.9416 3.79108 7.84772 3.97052 7.54866L2.94153 6.93126ZM3.61836 8.32798C3.63466 8.22833 3.66169 8.13074 3.69899 8.0369L2.58383 7.5937C2.51457 7.76797 2.46437 7.94922 2.4341 8.13428L3.61836 8.32798ZM4 8.6H20V7.4H4V8.6ZM14.4 12C14.4 13.3255 13.3255 14.4 12 14.4V15.6C13.9882 15.6 15.6 13.9882 15.6 12H14.4ZM12 14.4C10.6745 14.4 9.6 13.3255 9.6 12H8.4C8.4 13.9882 10.0118 15.6 12 15.6V14.4Z" fill="url(#paint0_linear_8489_41192)"/>
<defs>
<linearGradient id="paint0_linear_8489_41192" x1="-7.2375" y1="-7.0125" x2="21" y2="19.9875" gradientUnits="userSpaceOnUse">
<stop stop-color="#299FFF"/>
<stop offset="1" stop-color="#0202A8"/>
</linearGradient>
</defs>
</svg>
