<svg width="10" height="16" viewBox="0 0 10 16" fill="none" xmlns="http://www.w3.org/2000/svg">
<path d="M4.33333 3.3335H5.66667M3.13333 14.6668H6.86667C7.6134 14.6668 7.98677 14.6668 8.27199 14.5215C8.52287 14.3937 8.72684 14.1897 8.85468 13.9388C9 13.6536 9 13.2802 9 12.5335V3.46683C9 2.72009 9 2.34672 8.85468 2.06151C8.72684 1.81063 8.52287 1.60665 8.27199 1.47882C7.98677 1.3335 7.6134 1.3335 6.86667 1.3335H3.13333C2.3866 1.3335 2.01323 1.3335 1.72801 1.47882C1.47713 1.60665 1.27316 1.81063 1.14532 2.06151C1 2.34672 1 2.72009 1 3.46683V12.5335C1 13.2802 1 13.6536 1.14532 13.9388C1.27316 14.1897 1.47713 14.3937 1.72801 14.5215C2.01323 14.6668 2.3866 14.6668 3.13333 14.6668Z" stroke="#000536" stroke-width="1.2" stroke-linecap="round"/>
</svg>
