<svg width="16" height="16" viewBox="0 0 16 16" fill="none" xmlns="http://www.w3.org/2000/svg">
<path d="M2.6665 3.39992C2.33513 3.39992 2.0665 3.66855 2.0665 3.99992C2.0665 4.33129 2.33513 4.59992 2.6665 4.59992V3.39992ZM13.3332 4.59992C13.6645 4.59992 13.9332 4.33129 13.9332 3.99992C13.9332 3.66855 13.6645 3.39992 13.3332 3.39992V4.59992ZM4.73317 3.99992C4.73317 4.33129 5.0018 4.59992 5.33317 4.59992C5.66454 4.59992 5.93317 4.33129 5.93317 3.99992H4.73317ZM10.0665 3.99992C10.0665 4.33129 10.3351 4.59992 10.6665 4.59992C10.9979 4.59992 11.2665 4.33129 11.2665 3.99992H10.0665ZM12.0665 3.99456L12.0067 10.6969L13.2066 10.7077L13.2665 4.00528L12.0665 3.99456ZM8.60682 14.0666H7.33317V15.2666H8.60682V14.0666ZM2.73317 3.99992V10.6666H3.93317V3.99992H2.73317ZM2.6665 4.59992H3.33317V3.39992H2.6665V4.59992ZM3.33317 4.59992H12.6665V3.39992H3.33317V4.59992ZM12.6665 4.59992H13.3332V3.39992H12.6665V4.59992ZM5.93317 3.70362C5.93317 2.79036 6.79006 1.93325 7.99984 1.93325V0.733252C6.2641 0.733252 4.73317 1.99865 4.73317 3.70362H5.93317ZM7.99984 1.93325C9.20961 1.93325 10.0665 2.79036 10.0665 3.70362H11.2665C11.2665 1.99865 9.73558 0.733252 7.99984 0.733252V1.93325ZM4.73317 3.70362V3.99992H5.93317V3.70362H4.73317ZM10.0665 3.70362V3.99992H11.2665V3.70362H10.0665ZM7.33317 14.0666C5.4554 14.0666 3.93317 12.5444 3.93317 10.6666H2.73317C2.73317 13.2071 4.79266 15.2666 7.33317 15.2666V14.0666ZM12.0067 10.6969C11.99 12.5628 10.4727 14.0666 8.60682 14.0666V15.2666C11.1313 15.2666 13.1841 13.232 13.2066 10.7077L12.0067 10.6969Z" fill="#000536"/>
</svg>
