<svg width="25" height="24" viewBox="0 0 25 24" fill="none" xmlns="http://www.w3.org/2000/svg">
<path d="M8.5 13.4C8.16863 13.4 7.9 13.6686 7.9 14C7.9 14.3314 8.16863 14.6 8.5 14.6V13.4ZM10.5 14.6C10.8314 14.6 11.1 14.3314 11.1 14C11.1 13.6686 10.8314 13.4 10.5 13.4V14.6ZM8.5 9.4C8.16863 9.4 7.9 9.66863 7.9 10C7.9 10.3314 8.16863 10.6 8.5 10.6V9.4ZM14.5 10.6C14.8314 10.6 15.1 10.3314 15.1 10C15.1 9.66863 14.8314 9.4 14.5 9.4V10.6ZM8.5 5.4C8.16863 5.4 7.9 5.66863 7.9 6C7.9 6.33137 8.16863 6.6 8.5 6.6V5.4ZM14.5 6.6C14.8314 6.6 15.1 6.33137 15.1 6C15.1 5.66863 14.8314 5.4 14.5 5.4V6.6ZM17.9 10C17.9 10.3314 18.1686 10.6 18.5 10.6C18.8314 10.6 19.1 10.3314 19.1 10H17.9ZM10.5 20.6C10.8314 20.6 11.1 20.3314 11.1 20C11.1 19.6686 10.8314 19.4 10.5 19.4V20.6ZM5.57805 19.7748L5.85464 19.2424H5.85464L5.57805 19.7748ZM4.72517 18.9219L4.19272 19.1985H4.19273L4.72517 18.9219ZM17.4219 2.22517L17.1454 2.75762V2.75762L17.4219 2.22517ZM18.2748 3.07805L17.7424 3.35464L17.7424 3.35464L18.2748 3.07805ZM5.57805 2.22517L5.30147 1.69273H5.30147L5.57805 2.22517ZM4.72517 3.07805L4.19273 2.80147V2.80147L4.72517 3.07805ZM14.5001 16.4C14.1687 16.4 13.9001 16.6687 13.9001 17C13.9001 17.3314 14.1687 17.6 14.5001 17.6V16.4ZM20.5001 17.6C20.8315 17.6 21.1001 17.3314 21.1001 17C21.1001 16.6687 20.8315 16.4 20.5001 16.4V17.6ZM18.1 14C18.1 13.6686 17.8314 13.4 17.5 13.4C17.1686 13.4 16.9 13.6686 16.9 14H18.1ZM16.9 19.9999C16.9 20.3313 17.1686 20.5999 17.5 20.5999C17.8314 20.5999 18.1 20.3313 18.1 19.9999H16.9ZM8.5 14.6H10.5V13.4H8.5V14.6ZM8.5 10.6H14.5V9.4H8.5V10.6ZM8.5 6.6H14.5V5.4H8.5V6.6ZM7.72 2.6H15.28V1.4H7.72V2.6ZM17.9 5.22V10H19.1V5.22H17.9ZM10.5 19.4H7.72V20.6H10.5V19.4ZM5.1 16.78V5.22H3.9V16.78H5.1ZM7.72 19.4C7.14044 19.4 6.74246 19.3995 6.43412 19.3739C6.13296 19.3489 5.97146 19.3031 5.85464 19.2424L5.30147 20.3073C5.61812 20.4718 5.9581 20.5385 6.3348 20.5698C6.70433 20.6005 7.16058 20.6 7.72 20.6V19.4ZM3.9 16.78C3.9 17.3394 3.89952 17.7957 3.9302 18.1652C3.96149 18.5419 4.02824 18.8819 4.19272 19.1985L5.25762 18.6454C5.19694 18.5285 5.1511 18.367 5.12609 18.0659C5.10048 17.7575 5.1 17.3596 5.1 16.78H3.9ZM5.85464 19.2424C5.59894 19.1096 5.39045 18.9011 5.25762 18.6454L4.19273 19.1985C4.4394 19.6734 4.82659 20.0606 5.30147 20.3073L5.85464 19.2424ZM15.28 2.6C15.8596 2.6 16.2575 2.60048 16.5659 2.62609C16.867 2.6511 17.0285 2.69694 17.1454 2.75762L17.6985 1.69273C17.3819 1.52824 17.0419 1.46149 16.6652 1.4302C16.2957 1.39952 15.8394 1.4 15.28 1.4V2.6ZM19.1 5.22C19.1 4.66058 19.1005 4.20433 19.0698 3.83481C19.0385 3.4581 18.9718 3.11812 18.8073 2.80147L17.7424 3.35464C17.8031 3.47146 17.8489 3.63296 17.8739 3.93412C17.8995 4.24246 17.9 4.64044 17.9 5.22H19.1ZM17.1454 2.75762C17.4011 2.89045 17.6096 3.09894 17.7424 3.35464L18.8073 2.80147C18.5606 2.32659 18.1734 1.9394 17.6985 1.69272L17.1454 2.75762ZM7.72 1.4C7.16058 1.4 6.70433 1.39952 6.3348 1.4302C5.9581 1.46149 5.61812 1.52824 5.30147 1.69273L5.85464 2.75762C5.97146 2.69694 6.13296 2.6511 6.43412 2.62609C6.74246 2.60048 7.14044 2.6 7.72 2.6V1.4ZM5.1 5.22C5.1 4.64044 5.10048 4.24246 5.12609 3.93412C5.1511 3.63296 5.19694 3.47146 5.25762 3.35464L4.19273 2.80147C4.02824 3.11812 3.96149 3.4581 3.9302 3.83481C3.89952 4.20433 3.9 4.66058 3.9 5.22H5.1ZM5.30147 1.69273C4.82659 1.9394 4.4394 2.32659 4.19273 2.80147L5.25762 3.35464C5.39045 3.09894 5.59894 2.89045 5.85464 2.75762L5.30147 1.69273ZM14.5001 17.6H20.5001V16.4H14.5001V17.6ZM16.9 14L16.9 19.9999H18.1L18.1 14H16.9Z" fill="url(#paint0_linear_8030_6037)"/>
<defs>
<linearGradient id="paint0_linear_8030_6037" x1="-4.60006" y1="-8.0125" x2="23.2963" y2="15.6977" gradientUnits="userSpaceOnUse">
<stop stop-color="#299FFF"/>
<stop offset="1" stop-color="#0202A8"/>
</linearGradient>
</defs>
</svg>
