<svg width="16" height="12" viewBox="0 0 16 12" fill="none" xmlns="http://www.w3.org/2000/svg">
<path d="M7.9987 7.83382C9.60953 7.83382 10.9154 6.52799 10.9154 4.91716C10.9154 3.30632 9.60953 2.00049 7.9987 2.00049C6.38787 2.00049 5.08203 3.30632 5.08203 4.91716C5.08203 6.52799 6.38787 7.83382 7.9987 7.83382ZM7.9987 7.83382C5.42137 7.83382 3.33203 9.40083 3.33203 11.3338M7.9987 7.83382C10.576 7.83382 12.6654 9.40083 12.6654 11.3338" stroke="url(#paint0_linear_6877_49271)" stroke-width="1.2" stroke-linecap="round"/>
<path d="M0.665527 6.33999C0.665527 5.16508 1.93547 4.21262 3.50203 4.21262C2.52293 4.21262 1.72922 3.4189 1.72922 2.43981C1.72922 1.46071 2.52293 0.666992 3.50203 0.666992C3.94726 0.666992 4.35417 0.831125 4.66553 1.10218" stroke="url(#paint1_linear_6877_49271)" stroke-width="1.2" stroke-linecap="round"/>
<path d="M15.332 6.33999C15.332 5.16508 14.0621 4.21262 12.4955 4.21262C13.4746 4.21262 14.2683 3.4189 14.2683 2.43981C14.2683 1.46071 13.4746 0.666992 12.4955 0.666992C12.0503 0.666992 11.6434 0.831125 11.332 1.10218" stroke="url(#paint2_linear_6877_49271)" stroke-width="1.2" stroke-linecap="round"/>
<defs>
<linearGradient id="paint0_linear_6877_49271" x1="-1.9763" y1="-3.19118" x2="12.6654" y2="10.8088" gradientUnits="userSpaceOnUse">
<stop stop-color="#299FFF"/>
<stop offset="1" stop-color="#0202A8"/>
</linearGradient>
<linearGradient id="paint1_linear_6877_49271" x1="-1.60947" y1="-2.48862" x2="6.64886" y2="3.0791" gradientUnits="userSpaceOnUse">
<stop stop-color="#299FFF"/>
<stop offset="1" stop-color="#0202A8"/>
</linearGradient>
<linearGradient id="paint2_linear_6877_49271" x1="17.607" y1="-2.48862" x2="9.3487" y2="3.0791" gradientUnits="userSpaceOnUse">
<stop stop-color="#299FFF"/>
<stop offset="1" stop-color="#0202A8"/>
</linearGradient>
</defs>
</svg>
