<svg width="16" height="17" viewBox="0 0 16 17" fill="none" xmlns="http://www.w3.org/2000/svg">
<path d="M8.6 2.5C8.6 2.16863 8.33137 1.9 8 1.9C7.66863 1.9 7.4 2.16863 7.4 2.5L8.6 2.5ZM7.4 9.83333C7.4 10.1647 7.66863 10.4333 8 10.4333C8.33137 10.4333 8.6 10.1647 8.6 9.83333H7.4ZM11.0909 8.92426C11.3252 8.68995 11.3252 8.31005 11.0909 8.07574C10.8566 7.84142 10.4767 7.84142 10.2424 8.07574L11.0909 8.92426ZM8.4714 10.6953L8.04714 10.271L8.4714 10.6953ZM7.5286 10.6953L7.95286 10.271L7.5286 10.6953ZM5.7576 8.07574C5.52328 7.84142 5.14338 7.84142 4.90907 8.07574C4.67475 8.31005 4.67475 8.68995 4.90907 8.92426L5.7576 8.07574ZM2.6 11.1667C2.6 10.8353 2.33137 10.5667 2 10.5667C1.66863 10.5667 1.4 10.8353 1.4 11.1667H2.6ZM14.6 11.1667C14.6 10.8353 14.3314 10.5667 14 10.5667C13.6686 10.5667 13.4 10.8353 13.4 11.1667H14.6ZM12.908 14.282L12.6356 13.7474V13.7474L12.908 14.282ZM13.782 13.408L14.3166 13.6804L13.782 13.408ZM2.21799 13.408L1.68338 13.6804L2.21799 13.408ZM3.09202 14.282L2.81962 14.8166H2.81962L3.09202 14.282ZM7.4 2.5L7.4 9.83333H8.6L8.6 2.5L7.4 2.5ZM10.2424 8.07574L8.04714 10.271L8.89567 11.1195L11.0909 8.92426L10.2424 8.07574ZM7.95286 10.271L5.7576 8.07574L4.90907 8.92426L7.10433 11.1195L7.95286 10.271ZM8.04714 10.271C8.02111 10.297 7.97889 10.297 7.95286 10.271L7.10433 11.1195C7.599 11.6142 8.401 11.6142 8.89567 11.1195L8.04714 10.271ZM1.4 11.1667V11.3H2.6V11.1667H1.4ZM5.2 15.1H10.8V13.9H5.2V15.1ZM14.6 11.3V11.1667H13.4V11.3H14.6ZM10.8 15.1C11.3502 15.1 11.7989 15.1005 12.1625 15.0708C12.5331 15.0405 12.8678 14.9759 13.1804 14.8166L12.6356 13.7474C12.5204 13.8061 12.3611 13.8505 12.0647 13.8747C11.7613 13.8995 11.37 13.9 10.8 13.9V15.1ZM13.4 11.3C13.4 11.87 13.3995 12.2613 13.3747 12.5647C13.3505 12.8611 13.3061 13.0204 13.2474 13.1356L14.3166 13.6804C14.4759 13.3678 14.5405 13.0331 14.5708 12.6625C14.6005 12.2989 14.6 11.8502 14.6 11.3H13.4ZM13.1804 14.8166C13.6696 14.5673 14.0673 14.1696 14.3166 13.6804L13.2474 13.1356C13.1132 13.399 12.899 13.6132 12.6356 13.7474L13.1804 14.8166ZM1.4 11.3C1.4 11.8502 1.39953 12.2989 1.42924 12.6625C1.45952 13.0331 1.52411 13.3678 1.68338 13.6804L2.75259 13.1356C2.69388 13.0204 2.64947 12.8611 2.62526 12.5647C2.60047 12.2613 2.6 11.87 2.6 11.3H1.4ZM5.2 13.9C4.63005 13.9 4.23867 13.8995 3.93526 13.8747C3.63886 13.8505 3.47964 13.8061 3.36441 13.7474L2.81962 14.8166C3.13222 14.9759 3.46694 15.0405 3.83754 15.0708C4.20115 15.1005 4.64985 15.1 5.2 15.1V13.9ZM1.68338 13.6804C1.93265 14.1696 2.3304 14.5673 2.81962 14.8166L3.36441 13.7474C3.10099 13.6132 2.88681 13.399 2.75259 13.1356L1.68338 13.6804Z" fill="url(#paint0_linear_6874_67038)"/>
<defs>
<linearGradient id="paint0_linear_6874_67038" x1="-4.825" y1="-4.175" x2="14" y2="13.825" gradientUnits="userSpaceOnUse">
<stop stop-color="#299FFF"/>
<stop offset="1" stop-color="#0202A8"/>
</linearGradient>
</defs>
</svg>
