<svg width="17" height="16" viewBox="0 0 17 16" fill="none" xmlns="http://www.w3.org/2000/svg">
    <path
        d="M10.3705 5.60166C10.5187 5.30527 10.3985 4.94487 10.1021 4.79668C9.80576 4.64848 9.44536 4.76862 9.29717 5.06501L10.3705 5.60166ZM6.6305 10.3983C6.48231 10.6947 6.60244 11.0551 6.89883 11.2033C7.19521 11.3515 7.55562 11.2314 7.70381 10.935L6.6305 10.3983ZM3.95651 13.7094L4.22891 13.1747L3.95651 13.7094ZM2.79114 12.544L3.32574 12.2716L2.79114 12.544ZM14.2098 12.544L13.6752 12.2716L14.2098 12.544ZM13.0445 13.7094L12.7721 13.1747L13.0445 13.7094ZM13.0445 2.29065L12.7721 2.82525L13.0445 2.29065ZM14.2098 3.45603L13.6752 3.72842L14.2098 3.45603ZM3.95651 2.29065L4.22891 2.82525L3.95651 2.29065ZM2.79114 3.45603L3.32574 3.72842L2.79114 3.45603ZM9.29717 5.06501L6.6305 10.3983L7.70381 10.935L10.3705 5.60166L9.29717 5.06501ZM6.76716 2.6H10.2338V1.4H6.76716V2.6ZM13.9005 6.26667V9.73333H15.1005V6.26667H13.9005ZM10.2338 13.4H6.76715V14.6H10.2338V13.4ZM3.10049 9.73333V6.26667H1.90049V9.73333H3.10049ZM6.76715 13.4C6.01052 13.4 5.47912 13.3995 5.06455 13.3657C4.65699 13.3324 4.41544 13.2698 4.22891 13.1747L3.68412 14.244C4.06802 14.4396 4.48506 14.5223 4.96683 14.5617C5.44161 14.6005 6.03032 14.6 6.76715 14.6V13.4ZM1.90049 9.73333C1.90049 10.4702 1.90002 11.0589 1.93881 11.5337C1.97817 12.0154 2.06093 12.4325 2.25653 12.8164L3.32574 12.2716C3.2307 12.085 3.16813 11.8435 3.13483 11.4359C3.10095 11.0214 3.10049 10.49 3.10049 9.73333H1.90049ZM4.22891 13.1747C3.84004 12.9766 3.52388 12.6604 3.32574 12.2716L2.25653 12.8164C2.56972 13.431 3.06946 13.9308 3.68412 14.244L4.22891 13.1747ZM13.9005 9.73333C13.9005 10.49 13.9 11.0214 13.8661 11.4359C13.8329 11.8435 13.7703 12.085 13.6752 12.2716L14.7444 12.8164C14.94 12.4325 15.0228 12.0154 15.0622 11.5337C15.101 11.0589 15.1005 10.4702 15.1005 9.73333H13.9005ZM10.2338 14.6C10.9707 14.6 11.5594 14.6005 12.0341 14.5617C12.5159 14.5223 12.933 14.4396 13.3169 14.244L12.7721 13.1747C12.5855 13.2698 12.344 13.3324 11.9364 13.3657C11.5219 13.3995 10.9905 13.4 10.2338 13.4V14.6ZM13.6752 12.2716C13.4771 12.6604 13.1609 12.9766 12.7721 13.1747L13.3169 14.244C13.9315 13.9308 14.4313 13.431 14.7444 12.8164L13.6752 12.2716ZM10.2338 2.6C10.9905 2.6 11.5219 2.60047 11.9364 2.63434C12.344 2.66764 12.5855 2.73021 12.7721 2.82525L13.3169 1.75605C12.933 1.56044 12.5159 1.47769 12.0341 1.43832C11.5594 1.39953 10.9707 1.4 10.2338 1.4V2.6ZM15.1005 6.26667C15.1005 5.52983 15.101 4.94112 15.0622 4.46635C15.0228 3.98457 14.94 3.56753 14.7444 3.18363L13.6752 3.72842C13.7703 3.91495 13.8329 4.1565 13.8661 4.56406C13.9 4.97864 13.9005 5.51003 13.9005 6.26667H15.1005ZM12.7721 2.82525C13.1609 3.02339 13.4771 3.33955 13.6752 3.72842L14.7444 3.18363C14.4313 2.56897 13.9315 2.06923 13.3169 1.75605L12.7721 2.82525ZM6.76716 1.4C6.03032 1.4 5.44161 1.39953 4.96683 1.43832C4.48506 1.47769 4.06802 1.56044 3.68412 1.75605L4.22891 2.82525C4.41544 2.73021 4.65699 2.66764 5.06455 2.63434C5.47912 2.60047 6.01052 2.6 6.76716 2.6V1.4ZM3.10049 6.26667C3.10049 5.51003 3.10095 4.97864 3.13483 4.56406C3.16813 4.1565 3.2307 3.91495 3.32574 3.72842L2.25653 3.18363C2.06093 3.56753 1.97817 3.98457 1.93881 4.46635C1.90002 4.94112 1.90049 5.52983 1.90049 6.26667H3.10049ZM3.68412 1.75605C3.06946 2.06923 2.56972 2.56897 2.25653 3.18363L3.32574 3.72842C3.52388 3.33955 3.84004 3.02339 4.22891 2.82525L3.68412 1.75605Z"
        fill="currentColor" />
</svg>